<?xml version="1.0" standalone="no"?>
<!DOCTYPE svg PUBLIC "-//W3C//DTD SVG 1.1//EN" "http://www.w3.org/Graphics/SVG/1.1/DTD/svg11.dtd" >
<svg>
<metadata>
Created by FontForge 20090914 at Sat May 12 12:05:21 2018
 By www-data
Copyright (c) 2007-2014 Carter &#38; Cone Type Inc.  All rights reserved.
</metadata>
<defs>
<font id="NYTFranklinCW-Medium" horiz-adv-x="1167" >
  <font-face 
    font-family="NYTFranklinCW Medium"
    font-weight="500"
    font-stretch="normal"
    units-per-em="2048"
    panose-1="0 0 0 0 0 0 0 0 0 0"
    ascent="1571"
    descent="-477"
    x-height="1040"
    cap-height="1434"
    bbox="-408 -384.999 2367 1906"
    underline-thickness="41"
    underline-position="-232"
    unicode-range="U+0020-U+FB02"
  />
<missing-glyph horiz-adv-x="584" 
 />
    <glyph glyph-name="fi" unicode="fi" horiz-adv-x="1081" 
d="M932 1040v-1040h-175v1040h175zM934 1434v-201h-179v201h179zM623 1432l0.00292969 -141.997c-15.333 2 -33.833 4.16699 -55.5 6.5s-40.834 3.5 -57.501 3.5c-42 0 -77.5 -7.83301 -106.5 -23.5s-43.5 -47.834 -43.5 -96.501v-140h205v-127h-198v-913h-174v913h-164v127
h164v121c0 42.667 5.66699 79.667 17 111s26.666 58.666 45.999 81.999c25.333 29.333 56.166 51.666 92.499 66.999s74.5 23 114.5 23c22.667 0 48 -1 76 -3s56 -5 84 -9z" />
    <glyph glyph-name="fl" unicode="fl" horiz-adv-x="1081" 
d="M623 1432l0.00292969 -141.997c-15.333 2 -33.833 4.16699 -55.5 6.5s-40.834 3.5 -57.501 3.5c-42 0 -77.5 -7.83301 -106.5 -23.5s-43.5 -47.834 -43.5 -96.501v-140h205v-127h-198v-913h-174v913h-164v127h164v121c0 42.667 5.66699 79.667 17 111
s26.666 58.666 45.999 81.999c25.333 29.333 56.166 51.666 92.499 66.999s74.5 23 114.5 23c22.667 0 48 -1 76 -3s56 -5 84 -9zM930.003 1434v-1434h-175v1434h175z" />
    <glyph glyph-name=".notdef" horiz-adv-x="584" 
 />
    <glyph glyph-name="NUL" horiz-adv-x="0" 
 />
    <glyph glyph-name="NUL" horiz-adv-x="0" 
 />
    <glyph glyph-name="space" unicode=" " horiz-adv-x="584" 
 />
    <glyph glyph-name="exclam" unicode="!" horiz-adv-x="627" 
d="M426 227v-227h-225v227h225zM201 1434h225l-68 -1061h-90z" />
    <glyph glyph-name="quotedbl" unicode="&#x22;" horiz-adv-x="829" 
d="M125 1434h233l-82 -523h-69zM471 1434h234l-82 -523h-70z" />
    <glyph glyph-name="numbersign" unicode="#" 
d="M866 854h203l-16 -113h-201l-39 -254h203l-17 -110h-200l-51 -377h-119l51 377h-258l-53 -377h-117l51 377h-203l17 110h202l35 254h-202l16 113h201l53 375h121l-54 -375h259l51 375h119zM696 487l33 254h-256l-35 -254h258z" />
    <glyph glyph-name="dollar" unicode="$" 
d="M641 760c152 -28.667 261.336 -75.332 328.003 -139.999s100 -145.667 100 -243c0 -104.667 -38 -194.167 -114 -268.5s-180.667 -114.5 -314 -120.5v-201h-109v201c-116.667 6 -209.5 32.5 -278.5 79.5s-125.5 97.5 -169.5 151.5l113 109
c33.333 -44 78.666 -87.5 135.999 -130.5s123.666 -65.833 198.999 -68.5v475c-143.333 28.667 -246.666 74.167 -309.999 136.5s-95 139.166 -95 230.499c0 88.667 34.167 169.5 102.5 242.5s169.166 114.833 302.499 125.5v170h109v-170c96 -8 175.333 -28 238 -60
s113 -71.333 151 -118l-98 -117c-28.667 34.667 -68.334 69.167 -119.001 103.5s-108 52.5 -172 54.5v-442zM299.003 991.002c0 -54.667 18.833 -100.332 56.5 -136.999s96.5 -63.334 176.5 -80.001v428c-75.333 -4.66699 -133 -27 -173 -67s-60 -88 -60 -144z
M641.003 129.004c85.333 2 149.333 24.499 192 67.499s64 98.167 64 165.5c0 66 -20.833 116.833 -62.5 152.5s-106.167 60.834 -193.5 75.501v-461z" />
    <glyph glyph-name="percent" unicode="%" horiz-adv-x="1751" 
d="M475 1401c88.667 0 165.167 -32 229.5 -96s96.5 -141.333 96.5 -232c0 -88.667 -32.167 -165 -96.5 -229s-140.833 -96 -229.5 -96s-165 32 -229 96s-96 140.333 -96 229c0 90.667 32 168 96 232s140.333 96 229 96zM475 881c52 0 95.333 18.333 130 55s52 83 52 139
c0 57.333 -17.333 103.833 -52 139.5s-78 53.5 -130 53.5s-95.333 -17.833 -130 -53.5s-52 -82.167 -52 -139.5c0 -56 17.333 -102.333 52 -139s78 -55 130 -55zM1282 631c88.667 0 165.167 -32 229.5 -96s96.5 -141.333 96.5 -232c0 -88.667 -32.167 -165.167 -96.5 -229.5
s-140.833 -96.5 -229.5 -96.5s-165.167 32.167 -229.5 96.5s-96.5 140.833 -96.5 229.5c0 90.667 32.167 168 96.5 232s140.833 96 229.5 96zM1282 111c52 0 95.333 18.333 130 55s52 83 52 139c0 57.333 -17.333 103.833 -52 139.5s-78 53.5 -130 53.5
s-95.333 -17.833 -130 -53.5s-52 -82.167 -52 -139.5c0 -56 17.333 -102.333 52 -139s78 -55 130 -55zM1305 1376h139l-995 -1376h-138z" />
    <glyph glyph-name="ampersand" unicode="&#x26;" horiz-adv-x="1309" 
d="M1300 145v-152.999c-23.333 -2.66699 -42.166 -4.66699 -56.499 -6s-30.833 -2 -49.5 -2c-66 0.666992 -119.833 14.5 -161.5 41.5s-84.834 62.833 -129.501 107.5c-48 -46 -106 -83.5 -174 -112.5s-142.333 -43.5 -223 -43.5c-130.667 0 -237.167 39.167 -319.5 117.5
s-123.5 175.833 -123.5 292.5c0 95.333 28 180.333 84 255s140 135 252 181c-50 65.333 -86.667 123.166 -110 173.499s-35 103.166 -35 158.499c0 83.333 31.833 155 95.5 215s146.5 90 248.5 90s183.833 -28.667 245.5 -86s92.5 -129.666 92.5 -216.999
c0 -80.667 -25.167 -152.5 -75.5 -215.5s-124.166 -117.5 -221.499 -163.5l289 -409c44.667 60 79.667 127.833 105 203.5s44.333 153.167 57 232.5l157 -43c-16.667 -84.667 -43.334 -169.5 -80.001 -254.5s-85.667 -166.167 -147 -243.5
c21.333 -30.667 48.5 -58.667 81.5 -84s70.5 -38.333 112.5 -39c12.667 0 25.167 0.166992 37.5 0.5s28.5 1.5 48.5 3.5zM563 887.001c69.333 28.667 121.832 67.1689 157.499 115.502s53.5 97.833 53.5 148.5s-17 92 -51 124s-76.333 48 -127 48
c-48.667 0 -88.5 -15.167 -119.5 -45.5s-46.5 -69.833 -46.5 -118.5c0 -16.667 2 -33.834 6 -51.501s10.333 -35.834 19 -54.501c12 -26 26.833 -52.333 44.5 -79s38.834 -55.667 63.501 -87zM538.999 127.003c52 0 100.666 8.66797 145.999 26.001s87.333 46.333 126 87
l-340 473c-74 -32.667 -128.667 -74.834 -164 -126.501s-53 -111.167 -53 -178.5c0 -78.667 25.833 -145.167 77.5 -199.5s120.834 -81.5 207.501 -81.5z" />
    <glyph glyph-name="quotesingle" unicode="'" horiz-adv-x="481" 
d="M125 1434h233l-82 -523h-69z" />
    <glyph glyph-name="parenleft" unicode="(" horiz-adv-x="682" 
d="M344 565c0 -156.667 22.166 -306.499 66.499 -449.499s114.5 -283.167 210.5 -420.5h-136c-108 133.333 -188.5 272.166 -241.5 416.499s-79.5 295.5 -79.5 453.5c0 156 26.333 306.333 79 451s133.334 284 242.001 418h133c-94.667 -140 -164 -281 -208 -423
s-66 -290.667 -66 -446z" />
    <glyph glyph-name="parenright" unicode=")" horiz-adv-x="682" 
d="M197 1434c108.667 -134 189.333 -273.334 242 -418.001s79 -295 79 -451c0 -158 -26.5 -309.167 -79.5 -453.5s-133.5 -283.166 -241.5 -416.499h-136c96 137.333 166.167 277.5 210.5 420.5s66.5 292.833 66.5 449.5c0 155.333 -22 304 -66 446s-113.667 283 -209 423
h134z" />
    <glyph glyph-name="asterisk" unicode="*" horiz-adv-x="1096" 
d="M870 1262l56 -168l-328 -45l240 -226l-146 -108l-141 307l-145 -307l-146 108l244 226l-332 45l55 168l295 -156l-61 328h176l-62 -328z" />
    <glyph glyph-name="plus" unicode="+" 
d="M1067 625v-148h-410v-409h-147v409h-410v148h410v409h147v-409h410z" />
    <glyph glyph-name="comma" unicode="," horiz-adv-x="584" 
d="M408 240v-211l-158 -297h-96l125 274h-99v234h228z" />
    <glyph glyph-name="hyphen" unicode="-" horiz-adv-x="702" 
d="M594 625v-162h-485v162h485z" />
    <glyph glyph-name="period" unicode="." horiz-adv-x="584" 
d="M408 240v-240h-230v240h230z" />
    <glyph glyph-name="slash" unicode="/" horiz-adv-x="1047" 
d="M815 1434h141l-827 -1751h-141z" />
    <glyph glyph-name="zero" unicode="0" 
d="M586 1401c154.667 0 278.001 -63 370.001 -189s138 -300.667 138 -524c0 -224.667 -46.667 -399.334 -140 -524.001s-216 -187 -368 -187c-154 0 -277.5 61.833 -370.5 185.5s-139.5 298.834 -139.5 525.501c0 223.333 45.667 398 137 524s215.666 189 372.999 189z
M586.001 121c97.333 0 174.168 47.335 230.501 142.002s84.5 235.667 84.5 423s-27.833 328.666 -83.5 423.999s-132.834 143 -231.501 143c-102 0 -180.833 -47.833 -236.5 -143.5s-83.5 -236.834 -83.5 -423.501c0 -187.333 28.167 -328.333 84.5 -423
s134.833 -142 235.5 -142z" />
    <glyph glyph-name="one" unicode="1" 
d="M995 145v-145h-743v145h293v1018l-303 -123v121c89.333 46 157.333 83 204 111s100 65.333 160 112h117v-1239h272z" />
    <glyph glyph-name="two" unicode="2" 
d="M1061 164l-0.00195312 -164.001h-969v127c36.667 36 75.5 70.5 116.5 103.5l121.5 95.5l121.5 94c40.333 31.333 79.5 63.333 117.5 96c87.333 72.667 156 146.834 206 222.501s75 155.167 75 238.5c0 88.667 -25.167 155.5 -75.5 200.5s-118.166 67.5 -203.499 67.5
c-79.333 0 -146.5 -23.333 -201.5 -70s-94.833 -116.667 -119.5 -210l-172 55c38.667 125.333 101 220.166 187 284.499s189.333 96.5 310 96.5c134.667 0 245.834 -38.167 333.501 -114.5s131.5 -180.833 131.5 -313.5c0 -104 -30 -199.167 -90 -285.5
s-131.667 -165.166 -215 -236.499c-61.333 -52 -125.5 -101.833 -192.5 -149.5s-128.5 -93.5 -184.5 -137.5h703z" />
    <glyph glyph-name="three" unicode="3" 
d="M774 721c95.333 -29.333 166.333 -73.333 213 -132s70 -124.667 70 -198c0 -120 -47 -219 -141 -297s-218.333 -117 -373 -117c-116 0 -216.333 27.5 -301 82.5s-151.667 132.167 -201 231.5l158 76c35.333 -72 82.833 -130 142.5 -174s129.5 -66 209.5 -66
c95.333 0 171.666 23.5 228.999 70.5s86 110.833 86 191.5c0 75.333 -26.5 134.5 -79.5 177.5s-128.833 64.5 -227.5 64.5h-190v151h182c81.333 0 148.333 22.667 201 68s79 103.333 79 174c0 60 -23 112.5 -69 157.5s-109.667 67.5 -191 67.5
c-67.333 0 -127.333 -21.333 -180 -64s-97 -101.667 -133 -177l-164 63c47.333 102.667 112.333 183.334 195 242.001s177.334 88 284.001 88c131.333 0 238.333 -34.333 321 -103s124 -156 124 -262c0 -68 -21.833 -129.333 -65.5 -184s-103.167 -98.334 -178.5 -131.001z
" />
    <glyph glyph-name="four" unicode="4" 
d="M1145 481v-145h-244v-344h-168v344h-680v117l676 946h172v-918h244zM236 481h499v697z" />
    <glyph glyph-name="five" unicode="5" 
d="M614 915c141.333 0 254.171 -41.665 338.504 -124.998s126.5 -190.333 126.5 -321c0 -138.667 -49 -255.334 -147 -350.001s-223.667 -142 -377 -142c-111.333 0 -206.833 26.5 -286.5 79.5s-143.834 128.5 -192.501 226.5l155 71
c35.333 -68 80.166 -122.833 134.499 -164.5s120.166 -62.5 197.499 -62.5c102 0 182.167 30.667 240.5 92s87.5 140.666 87.5 237.999c0 95.333 -27.833 170.333 -83.5 225s-128.834 82 -219.501 82c-62 0 -119.5 -12.167 -172.5 -36.5s-99.5 -58.5 -139.5 -102.5l-129 82
l68 669h805l-19 -162h-647l-49 -411c38.667 29.333 85.667 55.333 141 78s111.333 34 168 34z" />
    <glyph glyph-name="six" unicode="6" 
d="M635 893c137.333 0 247.835 -39.667 331.502 -119s125.5 -182.333 125.5 -309c0 -139.333 -45.667 -255.5 -137 -348.5s-206.333 -139.5 -345 -139.5c-158 0 -283.167 59.167 -375.5 177.5s-138.5 282.5 -138.5 492.5c0 230.667 50.5 414 151.5 550
s232.167 204 393.5 204c106.667 0 197.5 -25.833 272.5 -77.5s130.167 -118.834 165.5 -201.501l-157 -73c-27.333 60.667 -64 109.834 -110 147.501s-102.333 56.5 -169 56.5c-106.667 0 -192.334 -46.5 -257.001 -139.5s-101.334 -219.167 -110.001 -378.5
c54.667 47.333 111.5 85.5 170.5 114.5s121.833 43.5 188.5 43.5zM602.002 121c91.333 0 164.667 31.6689 220 95.002s83 143.666 83 240.999c0 85.333 -27.667 155.166 -83 209.499s-123.333 81.5 -204 81.5c-66.667 0 -127.5 -14.833 -182.5 -44.5
s-108.167 -71.5 -159.5 -125.5c8 -153.333 41.667 -267.833 101 -343.5s134.333 -113.5 225 -113.5z" />
    <glyph glyph-name="seven" unicode="7" 
d="M1092 1376l-0.000976562 -121.001c-143.333 -205.333 -263 -404.166 -359 -596.499s-158.667 -411.833 -188 -658.5h-207c38 228 113.833 448.167 227.5 660.5s228.834 396.833 345.501 553.5h-823l18 162h986z" />
    <glyph glyph-name="eight" unicode="8" 
d="M791 721c98.667 -36 173.502 -84.168 224.502 -144.501s76.5 -133.166 76.5 -218.499c0 -108.667 -45.333 -200 -136 -274s-215.334 -111 -374.001 -111c-163.333 0 -288.5 35 -375.5 105s-130.5 159.333 -130.5 268c0 78.667 24.667 150.167 74 214.5
s123 114.5 221 150.5c-78.667 30.667 -140.334 73.667 -185.001 129s-67 120 -67 194c0 104 41 191.167 123 261.5s196 105.5 342 105.5c143.333 0 254.833 -33.5 334.5 -100.5s119.5 -150.833 119.5 -251.5c0 -71.333 -21.333 -136 -64 -194s-103.667 -102.667 -183 -134z
M584.002 112.999c100.667 0 179 23 235 69s84 102.667 84 170c0 60 -30.167 116.667 -90.5 170s-165.833 96.333 -316.5 129c-90 -29.333 -152.833 -70.333 -188.5 -123s-53.5 -110 -53.5 -172c0 -74 28.5 -133 85.5 -177s138.5 -66 244.5 -66zM664.002 763.999
c82 38 135.499 81.999 160.499 131.999s37.5 101 37.5 153c0 58.667 -24.333 108.834 -73 150.501s-117.667 62.5 -207 62.5c-87.333 0 -155.666 -21.167 -204.999 -63.5s-74 -91.5 -74 -147.5c0 -58 27.667 -112.5 83 -163.5s148 -92.167 278 -123.5z" />
    <glyph glyph-name="nine" unicode="9" 
d="M559 1401c156.667 0 280.831 -58.332 372.498 -174.999s137.5 -281 137.5 -493c0 -232.667 -50.5 -416.834 -151.5 -552.501s-231.5 -203.5 -391.5 -203.5c-104.667 0 -194.334 25.333 -269.001 76s-131.667 119.667 -171 207l158 72
c28.667 -62 66.334 -112 113.001 -150s102.334 -57 167.001 -57c106 0 191.833 46.5 257.5 139.5s100.834 217.833 105.501 374.5c-53.333 -46.667 -110 -84.667 -170 -114s-125.667 -44 -197 -44c-132.667 0 -240.167 40.167 -322.5 120.5s-123.5 184.833 -123.5 313.5
c0 142 47.5 258.5 142.5 349.5s209.167 136.5 342.5 136.5zM546.997 627.001c71.333 0 135.334 15.499 192.001 46.499s106.667 72.833 150 125.5c-6.66699 150 -39.334 263.167 -98.001 339.5s-134 114.5 -226 114.5c-89.333 0 -162.5 -31.667 -219.5 -95
s-85.5 -143.333 -85.5 -240c0 -83.333 27.667 -152.666 83 -207.999s123.333 -83 204 -83z" />
    <glyph glyph-name="colon" unicode=":" horiz-adv-x="688" 
d="M461 240v-240h-228v240h228zM461 1040v-239h-228v239h228z" />
    <glyph glyph-name="semicolon" unicode=";" horiz-adv-x="688" 
d="M461 240v-211l-160 -297h-96l125 274h-97v234h228zM461 1040v-239h-228v239h228z" />
    <glyph glyph-name="less" unicode="&#x3c;" 
d="M1010 166v-176l-891 512v100l891 508v-176l-688 -383z" />
    <glyph glyph-name="equal" unicode="=" 
d="M1057 455v-150h-944v150h944zM1057 803v-150h-944v150h944z" />
    <glyph glyph-name="greater" unicode="&#x3e;" 
d="M1049 602v-100l-891 -512v176l688 385l-688 383v176z" />
    <glyph glyph-name="question" unicode="?" horiz-adv-x="1100" 
d="M567 1458c136.667 0 243.164 -38.999 319.497 -116.999s114.5 -166.667 114.5 -266c0 -40 -6 -80 -18 -120s-29.667 -75.667 -53 -107c-25.333 -34.667 -59.333 -69.167 -102 -103.5l-150 -117.5c-27.333 -20.667 -49.833 -43.167 -67.5 -67.5s-26.5 -51.833 -26.5 -82.5
v-104h-154v139c0 46.667 11.667 87.167 35 121.5s49.333 64.833 78 91.5c23.333 21.333 49.5 43.333 78.5 66l89.5 71c28.667 23.333 51.5 53.166 68.5 89.499s25.5 73.5 25.5 111.5c0 76.667 -23.167 136.167 -69.5 178.5s-109.833 63.5 -190.5 63.5
c-77.333 0 -142.166 -25.833 -194.499 -77.5s-85.833 -122.834 -100.5 -213.501l-170 39c24.667 128.667 79.834 228.334 165.501 299.001s192.834 106 321.501 106zM626.997 227.001v-227h-228v227h228z" />
    <glyph glyph-name="at" unicode="@" horiz-adv-x="1972" 
d="M1100 1380c200 0 371.501 -58.998 514.501 -176.998s214.5 -271.333 214.5 -460c0 -112 -21 -221.333 -63 -328s-103.667 -193 -185 -259c-40.667 -32.667 -87.167 -57.334 -139.5 -74.001s-98.5 -25 -138.5 -25c-50 0 -90 13.167 -120 39.5s-49.667 74.166 -59 143.499
c-49.333 -63.333 -98.166 -107.5 -146.499 -132.5s-99.166 -37.5 -152.499 -37.5c-76 0 -136.167 30.167 -180.5 90.5s-66.5 137.833 -66.5 232.5c0 159.333 44.5 298.5 133.5 417.5s193.833 178.5 314.5 178.5c50 0 96.667 -11.167 140 -33.5
s78.666 -71.166 105.999 -146.499l35 147h151l-145 -557c-7.33301 -26.667 -12 -51.667 -14 -75s-3 -43.333 -3 -60c0 -24.667 9.16699 -45.167 27.5 -61.5s41.5 -24.5 69.5 -24.5c92.667 0 170.667 56.833 234 170.5s95 238.5 95 374.5c0 168 -61 302.833 -183 404.5
s-270.333 152.5 -445 152.5c-240.667 0 -438.5 -82.667 -593.5 -248s-232.5 -362 -232.5 -590c0 -208.667 63.167 -371.667 189.5 -489s291.166 -176 494.499 -176c78.667 0 158.5 8.83301 239.5 26.5s163.167 44.167 246.5 79.5l30 -96
c-81.333 -34.667 -170.333 -61.834 -267 -81.501s-190.334 -29.5 -281.001 -29.5c-231.333 0 -418.666 74 -561.999 222s-215 325.333 -215 532c0 267.333 94.167 492.5 282.5 675.5s413.166 274.5 674.499 274.5zM1112 350.002c34.667 64 58.6689 124.831 72.002 182.498
s20 110.834 20 159.501c0 44.667 -14.667 83.834 -44 117.501s-66.333 50.5 -111 50.5c-28.667 0 -59.334 -8.33301 -92.001 -25s-60.334 -39.667 -83.001 -69c-40 -53.333 -70 -112.833 -90 -178.5s-30 -127.167 -30 -184.5c0 -63.333 14.167 -112.833 42.5 -148.5
s65.833 -53.5 112.5 -53.5c36.667 0 74 14.167 112 42.5s68.333 63.833 91 106.5z" />
    <glyph glyph-name="A" unicode="A" 
d="M698 1434l471 -1434h-196l-137 420h-531l-129 -420h-178l475 1434h225zM354 575h432l-217 685z" />
    <glyph glyph-name="B" unicode="B" horiz-adv-x="1294" 
d="M907 756c91.333 -22.667 164.333 -64.8311 219 -126.498s82 -141.167 82 -238.5c0 -68 -12.833 -128.333 -38.5 -181s-63.834 -95.334 -114.501 -128.001c-42.667 -27.333 -94 -47.833 -154 -61.5s-126.333 -20.5 -199 -20.5h-538v1434h541c72 0 136 -7.83301 192 -23.5
s103.667 -38.834 143 -69.501c38 -30.667 68.333 -68.834 91 -114.501s34 -98.167 34 -157.5c0 -75.333 -23.167 -140.666 -69.5 -195.999s-109.166 -94.333 -188.499 -117zM686 160.003c102.667 0 181.333 21.499 236 64.499s82 104.167 82 183.5
c0 86.667 -29.167 151.334 -87.5 194.001s-142.5 64 -252.5 64h-306v-506h328zM663.999 821.002c95.333 0 168.668 19.6689 220.001 59.002s77 97.666 77 174.999c0 71.333 -24.333 125.666 -73 162.999s-117.334 56 -206.001 56h-324v-453h306z" />
    <glyph glyph-name="C" unicode="C" horiz-adv-x="1260" 
d="M1065 485l154 -41c-40 -158 -108 -275.333 -204 -352s-210.333 -115 -343 -115c-176.667 0 -319.5 64.833 -428.5 194.5s-163.5 310.834 -163.5 543.501c0 218.667 54.667 397.167 164 535.5s253.333 207.5 432 207.5c139.333 0 254 -40.833 344 -122.5
s150.667 -195.834 182 -342.501l-194 -28c-17.333 96.667 -55.333 176.334 -114 239.001s-132.667 94 -222 94c-115.333 0 -208 -51.5 -278 -154.5s-105 -245.167 -105 -426.5c0 -188.667 36.333 -332.834 109 -432.501s166 -149.5 280 -149.5
c96.667 0 178.167 29.833 244.5 89.5s113.833 146.5 142.5 260.5z" />
    <glyph glyph-name="D" unicode="D" horiz-adv-x="1366" 
d="M1024 1311c85.333 -68 150.334 -152.668 195.001 -254.001s67 -214.666 67 -339.999c0 -108.667 -16.333 -208.167 -49 -298.5s-79.667 -166.5 -141 -228.5c-59.333 -60.667 -130.833 -107.5 -214.5 -140.5s-177.5 -49.5 -281.5 -49.5h-436v1434h448
c87.333 0 165.166 -10.5 233.499 -31.5s127.833 -51.5 178.5 -91.5zM997.001 366.999c26.667 46 46.334 97.999 59.001 155.999s19 122.667 19 194c0 63.333 -5 120.833 -15 172.5s-25.333 98.5 -46 140.5c-38 80.667 -93 141.5 -165 182.5s-158.333 61.5 -259 61.5h-232
v-1114h236c92.667 0 173.167 17.333 241.5 52s122.166 86.334 161.499 155.001z" />
    <glyph glyph-name="E" unicode="E" horiz-adv-x="1155" 
d="M1104 164v-164h-940v1434h921v-164h-727v-457h512v-162h-512v-487h746z" />
    <glyph glyph-name="F" unicode="F" horiz-adv-x="1100" 
d="M1081 1434v-164h-723v-473h531v-160h-531v-637h-194v1434h917z" />
    <glyph glyph-name="G" unicode="G" horiz-adv-x="1358" 
d="M1231 719l0.00195312 -719h-103l-57 174c-38.667 -57.333 -91.834 -104.833 -159.501 -142.5s-148.167 -56.5 -241.5 -56.5c-175.333 0 -317.5 65 -426.5 195s-163.5 311.667 -163.5 545c0 218.667 55.667 397.167 167 535.5s255.666 207.5 432.999 207.5
c140.667 0 256.167 -36.667 346.5 -110s154.5 -177.333 192.5 -312l-185 -45c-6.66699 23.333 -14.667 46 -24 68s-19 42.333 -29 61c-31.333 56 -71.833 99.667 -121.5 131s-110.167 47 -181.5 47c-118.667 0 -213.167 -51.5 -283.5 -154.5s-105.5 -245.167 -105.5 -426.5
c0 -189.333 35.667 -334 107 -434s169.333 -150 294 -150c106.667 0 191.667 28.333 255 85s96.333 133.667 99 231c0 0.666992 0.5 18.667 1.5 54s1.5 54 1.5 56h-363v160h547z" />
    <glyph glyph-name="H" unicode="H" horiz-adv-x="1368" 
d="M1204 1434v-1434h-194v655h-652v-655h-194v1434h194v-617h652v617h194z" />
    <glyph glyph-name="I" unicode="I" horiz-adv-x="535" 
d="M365 1434v-1434h-195v1434h195z" />
    <glyph glyph-name="J" unicode="J" horiz-adv-x="788" 
d="M635 1434l0.00195312 -970.998c0 -80.667 -8 -151.834 -24 -213.501s-40.667 -112.834 -74 -153.501c-36 -42 -78.833 -73.333 -128.5 -94s-108.834 -31 -177.501 -31c-37.333 0 -74.5 3 -111.5 9s-74.833 13.333 -113.5 22l23 168
c35.333 -8 67.166 -14.833 95.499 -20.5s55.833 -8.5 82.5 -8.5c90.667 0 152.167 26.333 184.5 79s48.5 133 48.5 241v973h195z" />
    <glyph glyph-name="K" unicode="K" horiz-adv-x="1282" 
d="M772 911l524 -911h-217l-440 760l-281 -357v-403h-194v1434h194v-807l619 807h203z" />
    <glyph glyph-name="L" unicode="L" horiz-adv-x="1038" 
d="M1020 164v-164h-856v1434h194v-1270h662z" />
    <glyph glyph-name="M" unicode="M" horiz-adv-x="1714" 
d="M1550 1434v-1434h-188v1245l-451 -1245h-139l-444 1257v-1257h-164v1434h280l416 -1160l412 1160h278z" />
    <glyph glyph-name="N" unicode="N" horiz-adv-x="1382" 
d="M1219 1434v-1434h-164l-727 1223v-1223h-164v1434h246l645 -1088v1088h164z" />
    <glyph glyph-name="O" unicode="O" horiz-adv-x="1360" 
d="M1100 1272c56.667 -64 100.835 -143.331 132.502 -237.998s47.5 -200.334 47.5 -317.001c0 -108 -13.667 -206.833 -41 -296.5s-65 -165.5 -113 -227.5c-54 -69.333 -119 -123 -195 -161s-159.667 -57 -251 -57c-93.333 0 -177.833 19.333 -253.5 58
s-140.167 92.667 -193.5 162c-48.667 65.333 -86.334 142 -113.001 230s-40 185.333 -40 292c0 116.667 15.667 222.5 47 317.5s75.666 174.167 132.999 237.5c53.333 59.333 115.333 105.166 186 137.499s148.667 48.5 234 48.5s163.333 -16 234 -48s132.667 -78 186 -138z
M680.001 133.002c120.667 0 215.667 50.167 285 150.5s104 244.833 104 433.5c0 183.333 -34 326 -102 428s-163.667 153 -287 153s-219.333 -51.5 -288 -154.5s-103 -245.167 -103 -426.5c0 -189.333 35 -334 105 -434s165.333 -150 286 -150z" />
    <glyph glyph-name="P" unicode="P" horiz-adv-x="1223" 
d="M1042 1329c47.333 -38 82.833 -85.333 106.5 -142s35.5 -120.667 35.5 -192c0 -60 -11.5 -115.167 -34.5 -165.5s-55.833 -93.5 -98.5 -129.5c-42.667 -35.333 -95.167 -63.5 -157.5 -84.5s-132.833 -31.5 -211.5 -31.5h-324v-584h-194v1434h522
c76.667 0 144.667 -9 204 -27s110 -44 152 -78zM666 748c101.333 0 177.833 22.167 229.5 66.5s77.5 110.833 77.5 199.5c0 78 -26.5 140.833 -79.5 188.5s-130.167 71.5 -231.5 71.5h-304v-526h308z" />
    <glyph glyph-name="Q" unicode="Q" horiz-adv-x="1360" 
d="M1151 246l174.001 -139.998l-111 -131l-172 140c-48 -42.667 -102 -76.667 -162 -102s-126.667 -38 -200 -38c-93.333 0 -177.833 19.333 -253.5 58s-140.167 92.667 -193.5 162c-48.667 65.333 -86.334 142 -113.001 230s-40 185.333 -40 292
c0 116.667 15.667 222.5 47 317.5s75.666 174.167 132.999 237.5c53.333 59.333 115.333 105.166 186 137.499s148.667 48.5 234 48.5s163.333 -16 234 -48s132.667 -78 186 -138c56.667 -64 100.834 -143.333 132.501 -238s47.5 -200.334 47.5 -317.001
c0 -86.667 -11 -170.5 -33 -251.5s-54 -154.167 -96 -219.5zM1010 358.002c19.333 46 33.998 99.168 43.998 159.501s15 126.833 15 199.5c0 183.333 -34 326 -102 428s-163.667 153 -287 153s-219.333 -51.5 -288 -154.5s-103 -245.167 -103 -426.5
c0 -189.333 35 -334 105 -434s165.333 -150 286 -150c46.667 0 89.834 7.16699 129.501 21.5s74.834 35.166 105.501 62.499l-184 148l111 129z" />
    <glyph glyph-name="R" unicode="R" horiz-adv-x="1309" 
d="M924 666l293 -666h-211l-269 625h-379v-625h-194v1434h500c78 0 147.5 -7.16699 208.5 -21.5s113.5 -35.833 157.5 -64.5c54 -34 94.167 -78 120.5 -132s39.5 -116 39.5 -186c0 -82.667 -21.667 -155.5 -65 -218.5s-110.333 -111.5 -201 -145.5zM655 782
c108.667 0 190.5 20.167 245.5 60.5s82.5 102.833 82.5 187.5c0 77.333 -28 137.333 -84 180s-136 64 -240 64h-301v-492h297z" />
    <glyph glyph-name="S" unicode="S" horiz-adv-x="1200" 
d="M844 766c100 -31.333 175.169 -77.332 225.502 -137.999s75.5 -139 75.5 -235c0 -120 -50.333 -219.667 -151 -299s-226.667 -119 -378 -119c-126.667 0 -235.834 25 -327.501 75s-168.167 123.333 -229.5 220l150 125c40 -73.333 96.167 -135.333 168.5 -186
s153.5 -76 243.5 -76c91.333 0 167.666 21.667 228.999 65s92 100.333 92 171c0 68 -19.667 119.167 -59 153.5s-103 62.166 -191 83.499c-36.667 9.33301 -74.667 18.333 -114 27s-78.333 18.334 -117 29.001c-108 29.333 -192 76 -252 140s-90 144.667 -90 242
c0 67.333 17.5 130.5 52.5 189.5s81.5 106.5 139.5 142.5c42 26.667 88.667 47 140 61s106.333 21 165 21c116 0 214.333 -21.833 295 -65.5s146.334 -101.5 197.001 -173.5l-145 -125c-34.667 56 -81.834 104 -141.501 144s-129.5 60 -209.5 60
c-88.667 0 -159.667 -22.5 -213 -67.5s-80 -100.167 -80 -165.5c0 -66 22.333 -116.833 67 -152.5s105.667 -61.834 183 -78.501l143.5 -32.5c47.667 -11 91.5 -22.833 131.5 -35.5z" />
    <glyph glyph-name="T" unicode="T" horiz-adv-x="1075" 
d="M1057 1434v-164h-422v-1270h-195v1270h-422v164h1039z" />
    <glyph glyph-name="U" unicode="U" horiz-adv-x="1337" 
d="M1182 1434l0.00195312 -896.998c0 -48 -2.5 -93.5 -7.5 -136.5s-14.167 -83.5 -27.5 -121.5c-32.667 -100 -89.334 -175.667 -170.001 -227s-184.334 -77 -311.001 -77c-132.667 0 -240 29 -322 87s-137.333 143 -166 255c-8 30.667 -14 64.167 -18 100.5
s-6 73.166 -6 110.499v906h196v-895c0 -48 3.16699 -92.5 9.5 -133.5s16.833 -77.167 31.5 -108.5c24.667 -52 60.5 -92 107.5 -120s106.833 -42 179.5 -42c72 0 131.667 13 179 39s84 63 110 111c16 32.667 27.833 70.167 35.5 112.5s11.5 90.166 11.5 143.499v893h168z
" />
    <glyph glyph-name="V" unicode="V" horiz-adv-x="1163" 
d="M991 1434h172l-491 -1434h-176l-498 1434h201l395 -1178z" />
    <glyph glyph-name="W" unicode="W" horiz-adv-x="1745" 
d="M1565 1434h168l-379 -1434h-168l-309 1114l-310 -1114h-182l-371 1434h191l291 -1153l313 1153h156l309 -1143z" />
    <glyph glyph-name="X" unicode="X" horiz-adv-x="1188" 
d="M705 748l479 -748h-226l-383 606l-378 -606h-191l479 737l-446 697h225l350 -557l349 557h190z" />
    <glyph glyph-name="Y" unicode="Y" horiz-adv-x="1171" 
d="M995 1434h187l-498 -865v-569h-195v565l-499 869h217l395 -703z" />
    <glyph glyph-name="Z" unicode="Z" horiz-adv-x="1104" 
d="M1069 164v-164h-1038v125l790 1145h-741v164h987v-119l-797 -1151h799z" />
    <glyph glyph-name="bracketleft" unicode="[" horiz-adv-x="641" 
d="M578 -186v-119h-424v1739h421v-119h-249v-1501h252z" />
    <glyph glyph-name="backslash" unicode="\" horiz-adv-x="1047" 
d="M250 1434l827 -1751h-141l-827 1751h141z" />
    <glyph glyph-name="bracketright" unicode="]" horiz-adv-x="641" 
d="M492 1434v-1739h-424v119h251v1501h-249v119h422z" />
    <glyph glyph-name="asciicircum" unicode="^" 
d="M633 1460l407 -684h-176l-280 481l-283 -481h-176l407 684h101z" />
    <glyph glyph-name="underscore" unicode="_" horiz-adv-x="1006" 
d="M969 -139v-94h-932v94h932z" />
    <glyph glyph-name="grave" unicode="`" horiz-adv-x="942" 
d="M498 1434l180 -285h-131l-268 274v11h219z" />
    <glyph glyph-name="a" unicode="a" horiz-adv-x="1047" 
d="M948 10l0.00292969 -9.99902h-178c-0.666992 12.667 -4 30 -10 52s-9.33301 46.333 -10 73c-42 -38 -93.333 -71.333 -154 -100s-122 -43 -184 -43c-98 0 -179.833 24.667 -245.5 74s-98.5 118.666 -98.5 207.999c0 113.333 55 203.166 165 269.499
s279.333 111.833 508 136.5v67c0 60 -20.5 105.833 -61.5 137.5s-100.833 47.5 -179.5 47.5c-60 0 -109 -15.667 -147 -47s-64.333 -77.333 -79 -138l-165 33c22 89.333 67.167 159.833 135.5 211.5s158.166 77.5 269.499 77.5c85.333 0 155.666 -11.167 210.999 -33.5
s97.666 -52.833 126.999 -91.5c20.667 -27.333 36 -59.166 46 -95.499s15 -76.833 15 -121.5v-500c0 -59.333 4.16699 -103.833 12.5 -133.5s15.833 -54.167 22.5 -73.5zM453.003 125.001c56.667 0 108.333 9.33203 155 27.999s91 46.334 133 83.001v317
c-162.667 -22.667 -285.5 -55 -368.5 -97s-124.5 -97.667 -124.5 -167c0 -53.333 16.333 -94 49 -122s84.667 -42 156 -42z" />
    <glyph glyph-name="b" unicode="b" horiz-adv-x="1085" 
d="M612 1059c115.333 0 211.168 -46.8301 287.501 -140.497s114.5 -225.834 114.5 -396.501c0 -168.667 -41.5 -301.167 -124.5 -397.5s-189.833 -144.5 -320.5 -144.5c-67.333 0 -125.333 17.167 -174 51.5s-90.334 74.5 -125.001 120.5l-45 -152h-96
c2 23.333 4.16699 51.666 6.5 84.999s3.5 61.666 3.5 84.999v1264h176v-510c50 48 98.5 82.5 145.5 103.5s97.5 31.5 151.5 31.5zM563.002 111.003c87.333 0 153.167 35.999 197.5 107.999s66.5 173 66.5 303c0 114.667 -21 208.5 -63 281.5s-106.333 109.5 -193 109.5
c-52 0 -100.5 -12 -145.5 -36s-81.833 -48.667 -110.5 -74v-443c0 -79.333 23.833 -140.666 71.5 -183.999s106.5 -65 176.5 -65z" />
    <glyph glyph-name="c" unicode="c" horiz-adv-x="987" 
d="M813 342l129.003 -40.999c-24 -94 -71 -171 -141 -231s-156 -90 -258 -90c-138 0 -251 48 -339 144s-132 228.667 -132 398c0 149.333 42.5 276.166 127.5 380.499s196.833 156.5 335.5 156.5c108.667 0 197.667 -27.833 267 -83.5s114.666 -133.834 135.999 -234.501
l-166 -28c-12 66.667 -37.333 117.834 -76 153.501s-89.667 53.5 -153 53.5c-93.333 0 -164.5 -36.333 -213.5 -109s-73.5 -173 -73.5 -301c0 -119.333 24.5 -214 73.5 -284s121.5 -105 217.5 -105c71.333 0 128.666 18.833 171.999 56.5s74.666 92.5 93.999 164.5z" />
    <glyph glyph-name="d" unicode="d" horiz-adv-x="1085" 
d="M946 1434l0.000976562 -1434h-168v123c-40.667 -38.667 -86.5 -71.834 -137.5 -99.501s-109.5 -41.5 -175.5 -41.5c-124.667 0 -221.334 50.833 -290.001 152.5s-103 230.167 -103 385.5c0 172 41.5 304.833 124.5 398.5s180.5 140.5 292.5 140.5
c57.333 0 109.5 -10.667 156.5 -32s88.5 -53 124.5 -95v502h176zM524.001 127.001c48 0 92.666 10.501 133.999 31.501s79.333 47.5 114 79.5v577c-32.667 26 -69 48.5 -109 67.5s-85 28.5 -135 28.5c-87.333 0 -154.166 -34.833 -200.499 -104.5
s-69.5 -163.834 -69.5 -282.501c0 -136 23.667 -236.167 71 -300.5s112.333 -96.5 195 -96.5z" />
    <glyph glyph-name="e" unicode="e" horiz-adv-x="1061" 
d="M868 301l129 -70.0029c-38.667 -68 -96 -126.833 -172 -176.5s-168.667 -74.5 -278 -74.5c-144.667 0 -260 48.833 -346 146.5s-129 222.834 -129 375.501c0 157.333 43.833 289.5 131.5 396.5s201.5 160.5 341.5 160.5c82.667 0 155.5 -16.5 218.5 -49.5
s113.5 -82.167 151.5 -147.5c26.667 -44.667 46.667 -96.167 60 -154.5s20 -122.166 20 -191.499v-18h-745c0 -118.667 29.333 -211.167 88 -277.5s133.667 -99.5 225 -99.5c74 0 136.5 17.333 187.5 52s90.167 77.334 117.5 128.001zM256 620.997h562.999
c-0.666992 89.333 -23 161.833 -67 217.5s-109 83.5 -195 83.5c-93.333 0 -166.666 -30.333 -219.999 -91s-80.333 -130.667 -81 -210z" />
    <glyph glyph-name="f" unicode="f" horiz-adv-x="590" 
d="M623 1432l0.00292969 -141.997c-15.333 2 -33.833 4.16699 -55.5 6.5s-40.834 3.5 -57.501 3.5c-42 0 -77.5 -7.83301 -106.5 -23.5s-43.5 -47.834 -43.5 -96.501v-140h205v-127h-198v-913h-174v913h-164v127h164v121c0 42.667 5.66699 79.667 17 111
s26.666 58.666 45.999 81.999c25.333 29.333 56.166 51.666 92.499 66.999s74.5 23 114.5 23c22.667 0 48 -1 76 -3s56 -5 84 -9z" />
    <glyph glyph-name="g" unicode="g" horiz-adv-x="1051" 
d="M1028 1059l0.000976562 -188.999h-12c-16.667 14.667 -36 25.5 -58 32.5s-44.333 10.5 -67 10.5c-6.66699 0 -16.334 -0.5 -29.001 -1.5s-22 -2.5 -28 -4.5c16.667 -27.333 30 -57.166 40 -89.499s15 -66.5 15 -102.5c0 -97.333 -35.833 -177 -107.5 -239
s-167.5 -93 -287.5 -93c-30 0 -58.667 3 -86 9s-53.333 13.333 -78 22c-32 -11.333 -54 -25.666 -66 -42.999s-18 -35.333 -18 -54c0 -30.667 11.5 -51.334 34.5 -62.001s53.833 -17 92.5 -19l305 -15c118 -4.66699 202.167 -29.834 252.5 -75.501
s75.5 -105.167 75.5 -178.5c0 -87.333 -42.5 -160.666 -127.5 -219.999s-210.5 -89 -376.5 -89c-160 0 -278.833 24 -356.5 72s-116.5 109.333 -116.5 184c0 40.667 15 79.167 45 115.5s75 64.166 135 83.499c-44.667 20.667 -76 43.167 -94 67.5s-27 53.5 -27 87.5
c0 34.667 13 69.167 39 103.5s67 62.166 123 83.499c-52 31.333 -90.333 68.5 -115 111.5s-37 90.5 -37 142.5c0 98.667 37 181.667 111 249s172.333 101 295 101c50.667 0 100 -7.66699 148 -23s88.667 -37.666 122 -66.999c34.667 31.333 73 54.166 115 68.499
s88.333 21.5 139 21.5zM520.001 -218.999c106 0 184.833 14.501 236.5 43.501s77.5 68.5 77.5 118.5c0 42 -15.5 72.833 -46.5 92.5s-84.5 31.167 -160.5 34.5l-332 12c-34.667 -16.667 -59.667 -35.334 -75 -56.001s-23 -46.334 -23 -77.001
c0 -55.333 26.333 -97.166 79 -125.499s134 -42.5 244 -42.5zM496.001 504.002c67.333 0 120.333 19.5 159 58.5s58 91.167 58 156.5s-19.667 118.166 -59 158.499s-92 60.5 -158 60.5c-66.667 0 -119.5 -20.5 -158.5 -61.5s-58.5 -94.167 -58.5 -159.5
s19.333 -117.166 58 -155.499s91.667 -57.5 159 -57.5z" />
    <glyph glyph-name="h" unicode="h" horiz-adv-x="1098" 
d="M969 711l0.000976562 -711.002h-178v707c0 60 -14.167 108.667 -42.5 146s-79.166 56 -152.499 56c-62 0 -117.833 -17.833 -167.5 -53.5s-87.5 -64.167 -113.5 -85.5v-770h-176v1434h176v-543c32 32.667 75.167 68.834 129.5 108.501s128.166 59.5 221.499 59.5
c69.333 0 126.666 -15.667 171.999 -47s77.333 -68.333 96 -111c13.333 -30.667 22.5 -62.167 27.5 -94.5s7.5 -64.166 7.5 -95.499z" />
    <glyph glyph-name="i" unicode="i" horiz-adv-x="471" 
d="M322 1040v-1040h-175v1040h175zM324 1434v-201h-179v201h179z" />
    <glyph glyph-name="j" unicode="j" horiz-adv-x="477" 
d="M334 1040l-0.00195312 -1073c0 -48 -5.83301 -90 -17.5 -126s-27.834 -66.333 -48.501 -91c-25.333 -31.333 -56.166 -54.166 -92.499 -68.499s-73.833 -21.5 -112.5 -21.5c-21.333 0 -47.666 1 -78.999 3s-59.333 5 -84 9v140
c12.667 -2.66699 31.334 -4.83398 56.001 -6.50098s44 -2.5 58 -2.5c40 0 74 9 102 27s42 55.667 42 113v1097h176zM335.998 1434v-201h-178v201h178z" />
    <glyph glyph-name="k" unicode="k" horiz-adv-x="995" 
d="M618 666l379 -666h-190l-311 541l-181 -205v-336h-176v1434h176v-924l451 530h186z" />
    <glyph glyph-name="l" unicode="l" horiz-adv-x="471" 
d="M322 1434v-1434h-175v1434h175z" />
    <glyph glyph-name="m" unicode="m" horiz-adv-x="1683" 
d="M1552 717l0.00195312 -716.999h-176v721c0 52.667 -12.667 97.167 -38 133.5s-72 54.5 -140 54.5c-52 0 -102.667 -17.167 -152 -51.5s-87.333 -62.166 -114 -83.499v-774h-174v721c0 52.667 -12.333 97.167 -37 133.5s-71 54.5 -139 54.5
c-53.333 0 -105.333 -17.667 -156 -53s-87.667 -63.333 -111 -84v-772h-176v1040h172v-149c32 33.333 74.167 69.666 126.5 108.999s122.166 59 209.499 59c66 0 121.167 -15.667 165.5 -47s77.166 -75 98.499 -131c42 42 89.5 82.167 142.5 120.5s124.5 57.5 214.5 57.5
c64 0 117.667 -15.333 161 -46s74.333 -67.334 93 -110.001c12 -29.333 20 -60.5 24 -93.5s6 -63.833 6 -92.5z" />
    <glyph glyph-name="n" unicode="n" horiz-adv-x="1098" 
d="M969 711v-711.001h-178v707c0 60 -14.167 108.667 -42.5 146s-79.166 56 -152.499 56c-62 0 -117.833 -17.833 -167.5 -53.5s-87.5 -64.167 -113.5 -85.5v-770h-176v1040h172v-153c32 32.667 75.833 69.5 131.5 110.5s130.167 61.5 223.5 61.5
c69.333 0 126.666 -15.667 171.999 -47s77.333 -68.333 96 -111c13.333 -30.667 22.5 -62.167 27.5 -94.5s7.5 -64.166 7.5 -95.499z" />
    <glyph glyph-name="o" unicode="o" horiz-adv-x="1075" 
d="M537 1059c143.333 0 257.333 -49.499 342 -148.499s127 -228.5 127 -388.5c0 -162.667 -42.833 -293.667 -128.5 -393s-199.167 -149 -340.5 -149c-138.667 0 -250.834 49.667 -336.501 149s-128.5 230.333 -128.5 393c0 155.333 41.833 283.666 125.5 384.999
s196.834 152 339.501 152zM537 121.001c92.667 0 162.833 34.833 210.5 104.5s71.5 168.5 71.5 296.5c0 126.667 -24 224.667 -72 294s-118 104 -210 104c-95.333 0 -166 -36 -212 -108s-69 -168.667 -69 -290c0 -124.667 23.167 -222.667 69.5 -294
s116.833 -107 211.5 -107z" />
    <glyph glyph-name="p" unicode="p" horiz-adv-x="1085" 
d="M625 1059c124 0 219.833 -52.833 287.5 -158.5s101.5 -231.834 101.5 -378.501c0 -172 -38.5 -305 -115.5 -399s-175.833 -141 -296.5 -141c-50 0 -100.667 11.333 -152 34s-96.333 54.334 -135 95.001v-451h-176v1380h172v-129c42 48 89.5 84.667 142.5 110
s110.167 38 171.5 38zM565 127c88 0 153.668 33.833 197.001 101.5s65 162.167 65 283.5c0 140 -23.333 241.5 -70 304.5s-111.334 94.5 -194.001 94.5c-46 0 -90.167 -11.833 -132.5 -35.5s-80.833 -51.167 -115.5 -82.5v-566c32 -23.333 69.667 -45.833 113 -67.5
s89 -32.5 137 -32.5z" />
    <glyph glyph-name="q" unicode="q" horiz-adv-x="1085" 
d="M860 1040l96.002 0.00195312c-2 -20.667 -4.16699 -47.334 -6.5 -80.001s-3.5 -60.334 -3.5 -83.001v-1217h-176v455c-48.667 -44.667 -98.834 -78 -150.501 -100s-103.834 -33 -156.501 -33c-113.333 0 -206.833 47 -280.5 141s-110.5 224.333 -110.5 391
c0 170.667 42 304.167 126 400.5s188 144.5 312 144.5c70 0 127.833 -13 173.5 -39s89.5 -67 131.5 -123zM510.002 129.002c55.333 0 104.669 9.33203 148.002 27.999s81.333 39.334 114 62.001v469c0 76.667 -23.833 135.167 -71.5 175.5s-105.834 60.5 -174.501 60.5
c-87.333 0 -153.833 -37 -199.5 -111s-68.5 -175.667 -68.5 -305c0 -108 20.167 -198.167 60.5 -270.5s104.166 -108.5 191.499 -108.5z" />
    <glyph glyph-name="r" unicode="r" horiz-adv-x="698" 
d="M684 1057l-0.000976562 -201.001h-8c-19.333 4.66699 -36.166 7.83398 -50.499 9.50098s-28.833 2.5 -43.5 2.5c-74.667 0 -134 -19 -178 -57s-73.667 -67.333 -89 -88v-723h-176v1040h166v-204c32 46.667 81.333 95.167 148 145.5s143.667 75.5 231 75.5z" />
    <glyph glyph-name="s" unicode="s" horiz-adv-x="926" 
d="M582 590c99.333 -22.667 174.332 -56.8311 224.999 -102.498s76 -107.834 76 -186.501c0 -92 -40.667 -168.5 -122 -229.5s-181.333 -91.5 -300 -91.5c-93.333 0 -174.5 18.667 -243.5 56s-125.833 95.666 -170.5 174.999l129 90
c34.667 -59.333 75.667 -104.5 123 -135.5s107.333 -46.5 180 -46.5c64 0 118.333 14.333 163 43s67 67.667 67 117c0 38 -11.5 67.667 -34.5 89s-58.167 38.666 -105.5 51.999c-32.667 8.66699 -71.834 17 -117.501 25s-87.5 18 -125.5 30
c-86.667 28.667 -147.667 65.667 -183 111s-53 102.666 -53 171.999c0 44.667 10.833 85.334 32.5 122.001s49.834 68.334 84.501 95.001c36 28.667 76.833 49.834 122.5 63.501s90.834 20.5 135.501 20.5c84.667 0 159 -16.333 223 -49s118 -86 162 -160l-139 -88
c-24 47.333 -56.833 86.166 -98.5 116.499s-89.5 45.5 -143.5 45.5c-58 0 -107.333 -14 -148 -42s-61 -65.333 -61 -112c0 -36 12 -65.333 36 -88s57 -39 99 -49c22.667 -6 50 -12.5 82 -19.5z" />
    <glyph glyph-name="t" unicode="t" horiz-adv-x="651" 
d="M604 137l0.00195312 -130.999c-30.667 -8 -58.334 -14 -83.001 -18s-50.334 -6 -77.001 -6c-84.667 0 -148.5 22.833 -191.5 68.5s-64.5 114.167 -64.5 205.5c0 132.667 0.5 254.5 1.5 365.5s2.16699 208.167 3.5 291.5h-162v127h162l22 332h150v-332h239v-127h-239v-657
c0 -42.667 10.667 -74.834 32 -96.501s58.333 -32.5 111 -32.5c10 0 26 1.16699 48 3.5s38 4.5 48 6.5z" />
    <glyph glyph-name="u" unicode="u" horiz-adv-x="1096" 
d="M954 1040l-0.000976562 -1040h-170v154c-37.333 -43.333 -85.166 -82.833 -143.499 -118.5s-128.5 -53.5 -210.5 -53.5c-67.333 0 -123.833 15.5 -169.5 46.5s-77.834 67.833 -96.501 110.5c-13.333 30.667 -21.833 62.167 -25.5 94.5s-5.5 64.5 -5.5 96.5v710h174v-706
c0 -59.333 14.333 -107.666 43 -144.999s79.334 -56 152.001 -56c52 0 103.667 15.667 155 47s92.333 61.333 123 90v770h174z" />
    <glyph glyph-name="v" unicode="v" horiz-adv-x="924" 
d="M762 1040h156l-386 -1040h-147l-381 1040h184l287 -819z" />
    <glyph glyph-name="w" unicode="w" horiz-adv-x="1393" 
d="M1223 1040h151l-321 -1040h-135l-222 799l-229 -799h-135l-316 1040h185l217 -774l221 774h135l221 -782z" />
    <glyph glyph-name="x" unicode="x" horiz-adv-x="942" 
d="M569 545l367 -545h-205l-280 426l-275 -426h-172l367 537l-338 503h205l249 -383l252 383h170z" />
    <glyph glyph-name="y" unicode="y" horiz-adv-x="922" 
d="M760 1040h158.001l-392 -1075c-40 -108 -86.833 -185.833 -140.5 -233.5s-124.167 -71.5 -211.5 -71.5c-20.667 0 -41.167 1.16699 -61.5 3.5s-40.833 5.83301 -61.5 10.5v148l66 -11.5c21.333 -3.66699 39.666 -5.5 54.999 -5.5c61.333 0 107.833 15.667 139.5 47
s56.834 80 75.501 146c0 0.666992 -10.333 29.5 -31 86.5s-31.334 86.833 -32.001 89.5l-320 866h186l289 -817z" />
    <glyph glyph-name="z" unicode="z" horiz-adv-x="850" 
d="M823 133v-133h-792v98l559 813h-520v129h739v-94l-561 -813h575z" />
    <glyph glyph-name="braceleft" unicode="{" horiz-adv-x="743" 
d="M657 -199v-106.001h-65c-104 0 -184.333 26 -241 78s-85 134.333 -85 247v285c0 63.333 -10.5 113 -31.5 149s-60.833 54 -119.5 54h-54v113h54c58.667 0 98.5 17.667 119.5 53s31.5 85 31.5 149v285c0 112.667 28.333 195.167 85 247.5s137 78.5 241 78.5h65v-107h-53
c-59.333 0 -100.5 -14.333 -123.5 -43s-34.5 -75 -34.5 -139v-260c0 -89.333 -23.333 -162 -70 -218s-109.334 -90.667 -188.001 -104c78.667 -10.667 141.334 -44.167 188.001 -100.5s70 -129.166 70 -218.499v-260c0 -64 11.5 -110.5 34.5 -139.5
s64.167 -43.5 123.5 -43.5h53z" />
    <glyph glyph-name="bar" unicode="|" horiz-adv-x="594" 
d="M371 1434v-1751h-148v1751h148z" />
    <glyph glyph-name="braceright" unicode="}" horiz-adv-x="743" 
d="M682 621v-112.999h-53c-59.333 0 -99.5 -18 -120.5 -54s-31.5 -85.667 -31.5 -149v-285c0 -112.667 -28.333 -195 -85 -247s-136.667 -78 -240 -78h-66v106h53c59.333 0 100.5 14.5 123.5 43.5s34.5 75.5 34.5 139.5v260c0 89.333 23.333 162.166 70 218.499
s109.334 89.833 188.001 100.5c-78.667 13.333 -141.334 48 -188.001 104s-70 128.667 -70 218v260c0 64 -11.5 110.333 -34.5 139s-64.167 43 -123.5 43h-53v107h66c103.333 0 183.333 -26.167 240 -78.5s85 -134.833 85 -247.5v-285c0 -64 10.5 -113.667 31.5 -149
s61.167 -53 120.5 -53h53z" />
    <glyph glyph-name="asciitilde" unicode="~" 
d="M913 760l150.002 0.000976562c-2 -122 -27 -221.167 -75 -297.5s-114.667 -114.5 -200 -114.5c-56.667 0 -104.334 13.667 -143.001 41s-72 58.666 -100 93.999c-26 32.667 -51.667 61.667 -77 87s-54.333 38 -87 38c-48 0 -80.833 -24.167 -98.5 -72.5
s-27.167 -112.166 -28.5 -191.499h-150c2 123.333 26.667 223.166 74 299.499s114.333 114.5 201 114.5c56.667 0 103.167 -12.333 139.5 -37s71.166 -57.334 104.499 -98.001c25.333 -31.333 50.833 -60.333 76.5 -87s53.167 -40 82.5 -40c46 0 78.667 21.833 98 65.5
s30.333 109.834 33 198.501z" />
    <glyph glyph-name="nonbreakingspace" unicode="&#xa0;" horiz-adv-x="584" 
 />
    <glyph glyph-name="exclamdown" unicode="&#xa1;" horiz-adv-x="627" 
d="M358 760l68 -1075h-225l67 1075h90zM426 1118v-227h-225v227h225z" />
    <glyph glyph-name="cent" unicode="&#xa2;" 
d="M877 510l122.002 -41c-18.667 -75.333 -56.5 -141.5 -113.5 -198.5s-130.167 -90.5 -219.5 -100.5v-236h-111v236c-117.333 12.667 -212.833 63.5 -286.5 152.5s-110.5 208.833 -110.5 359.5c0 129.333 35.5 243 106.5 341s167.833 153.667 290.5 167v201h111v-203
c94.667 -9.33301 169.5 -41.333 224.5 -96s89.833 -121.667 104.5 -201l-157 -25c-6.66699 32 -21.834 69.167 -45.501 111.5s-65.834 68.833 -126.501 79.5v-758c66 8.66699 114.5 35 145.5 79s52.833 88 65.5 132zM334.002 670c0 -96 18.333 -177.332 55 -243.999
s92 -108.334 166 -125.001v756c-79.333 -15.333 -136 -60.5 -170 -135.5s-51 -158.833 -51 -251.5z" />
    <glyph glyph-name="sterling" unicode="&#xa3;" 
d="M1006 315l137.001 -94c-49.333 -88 -105.833 -150.667 -169.5 -188s-133.5 -56 -209.5 -56c-78 0 -146.5 13.833 -205.5 41.5s-116.167 63.167 -171.5 106.5c-28.667 -42.667 -68 -78 -118 -106s-107.667 -42 -173 -42v158c69.333 12 123.5 43.333 162.5 94
s58.5 129.334 58.5 236.001c0 22.667 -1 45 -3 67s-5 43.333 -9 64h-196v106h170c-13.333 47.333 -25.666 94.833 -36.999 142.5s-17 98.5 -17 152.5c0 106.667 38.667 200.667 116 282s188.333 122 333 122c95.333 0 173.666 -13.333 234.999 -40
s123.666 -68.667 186.999 -126l-119 -125c-27.333 28.667 -68.5 59.334 -123.5 92.001s-112.167 49 -171.5 49c-76.667 0 -139.5 -22.167 -188.5 -66.5s-73.5 -104.5 -73.5 -180.5c0 -49.333 6 -98.5 18 -147.5s23 -100.5 33 -154.5h397v-106h-381
c0.666992 -10.667 1.16699 -21.334 1.5 -32.001s0.5 -21.334 0.5 -32.001c0 -44 -2 -90.833 -6 -140.5s-18.333 -103.167 -43 -160.5c35.333 -27.333 78 -50.833 128 -70.5s107 -29.5 171 -29.5c59.333 0 111 15.167 155 45.5s81.333 76.5 112 138.5z" />
    <glyph glyph-name="currency" unicode="&#xa4;" 
d="M997 276l119.001 -109.996c-58 -57.333 -119.5 -103.166 -184.5 -137.499s-150.833 -51.5 -257.5 -51.5c-93.333 0 -184.333 38.667 -273 116s-147.334 202 -176.001 374h-153v106h141c-0.666992 16.667 -1.5 33.667 -2.5 51s-1.5 34.666 -1.5 51.999s0.5 34.5 1.5 51.5
s1.83301 33.833 2.5 50.5h-141v107h151c28.667 181.333 89.667 312.666 183 393.999s193 122 299 122c110.667 0 195 -18 253 -54s110 -75.333 156 -118l-131 -111c-34 34.667 -72.167 65.5 -114.5 92.5s-97.833 40.5 -166.5 40.5c-75.333 0 -139.5 -30.833 -192.5 -92.5
s-89.167 -152.834 -108.5 -273.501h406v-107h-418c-0.666992 -16.667 -1.5 -33.834 -2.5 -51.501s-1.5 -35.834 -1.5 -54.501c0 -17.333 0.5 -34.333 1.5 -51s1.83301 -32.667 2.5 -48h350v-106h-336c20.667 -116.667 59.667 -202.5 117 -257.5s126.333 -82.5 207 -82.5
c61.333 0 114.833 17 160.5 51s82.167 66.667 109.5 98z" />
    <glyph glyph-name="yen" unicode="&#xa5;" 
d="M932 1376h176l-305 -583h258v-107h-318l-71 -131v-74h389v-106h-389v-375h-172v375h-385v106h385v70l-76 135h-309v107h254l-310 583h199l338 -684z" />
    <glyph glyph-name="section" unicode="&#xa7;" 
d="M780 887c87.333 -32.667 150.498 -71.6699 189.498 -117.003s58.5 -102 58.5 -170c0 -52 -18.167 -102 -54.5 -150s-85.166 -87.333 -146.499 -118c34 -22 62 -49.833 84 -83.5s33 -77.5 33 -131.5c0 -40.667 -11.333 -79.167 -34 -115.5
s-52.334 -68.166 -89.001 -95.499c-36 -28 -77.5 -48.333 -124.5 -61s-93.5 -19 -139.5 -19c-72 0 -141.333 11.833 -208 35.5s-121 58.834 -163 105.501l97 125c33.333 -34.667 74.833 -64.167 124.5 -88.5s98.167 -36.5 145.5 -36.5c59.333 0 109 13.333 149 40
s60 63.334 60 110.001c0 27.333 -9.5 51.666 -28.5 72.999s-48.167 39.333 -87.5 54l-167.5 63l-87.5 33c-87.333 32.667 -150.5 72.167 -189.5 118.5s-58.5 102.5 -58.5 168.5c0 50.667 17.833 100 53.5 148s84.167 87.333 145.5 118c-35.333 25.333 -64 55.5 -86 90.5
s-33 77.833 -33 128.5c0 40.667 11.333 78.834 34 114.501s52.334 67.167 89.001 94.5s78.334 47.5 125.001 60.5s93 19.5 139 19.5c74.667 0 143 -11.833 205 -35.5s114 -58.834 156 -105.501l-97 -125c-38.667 38.667 -80.5 69.167 -125.5 91.5s-89.833 33.5 -134.5 33.5
c-56 0 -104.667 -12.833 -146 -38.5s-62 -62.167 -62 -109.5c0 -30.667 11.5 -56.667 34.5 -78s54.833 -39.666 95.5 -54.999l151 -57zM738.998 382.997c34.667 15.333 64.834 37.5 90.501 66.5s38.5 65.5 38.5 109.5c0 38 -12.333 72.167 -37 102.5
s-62.334 55.166 -113.001 74.499l-138 51.5l-150 54.5c-38.667 -18 -69.5 -41.667 -92.5 -71s-34.5 -63.666 -34.5 -102.999c0 -38.667 12.333 -72.5 37 -101.5s57.667 -52.167 99 -69.5c48 -20 99.167 -39.833 153.5 -59.5z" />
    <glyph glyph-name="dieresis" unicode="&#xa8;" horiz-adv-x="942" 
d="M735 1389v-193h-170v193h170zM375 1389v-193h-172v193h172z" />
    <glyph glyph-name="copyright" unicode="&#xa9;" horiz-adv-x="1583" 
d="M1010 590l111.999 -35.002c-21.333 -78.667 -58.666 -141 -111.999 -187s-118.333 -69 -195 -69c-106.667 0 -193.334 36 -260.001 108s-100 172.667 -100 302c0 116.667 32.667 213.334 98 290.001s150.666 115 255.999 115c84.667 0 153.5 -22.333 206.5 -67
s87.167 -107 102.5 -187l-139 -20c-9.33301 47.333 -27.666 84 -54.999 110s-63.666 39 -108.999 39c-68 0 -118.833 -25.667 -152.5 -77s-50.5 -122.666 -50.5 -213.999c0 -84 17 -150.667 51 -200s85.333 -74 154 -74c49.333 0 89.333 13.167 120 39.5s55 68.5 73 126.5z
M792.999 1415c193.333 0 359.333 -69.333 498 -208s208 -305.334 208 -500.001c0 -194 -69.333 -360.333 -208 -499s-304.667 -208 -498 -208c-195.333 0 -362 69.333 -500 208s-207 305 -207 499c0 194.667 69 361.334 207 500.001s304.667 208 500 208zM792.999 93.998
c167.333 0 311.166 60.167 431.499 180.5s180.5 264.5 180.5 432.5c0 169.333 -60.167 314 -180.5 434s-264.166 180 -431.499 180c-169.333 0 -314.166 -60 -434.499 -180s-180.5 -264.667 -180.5 -434c0 -168 60.167 -312.167 180.5 -432.5s265.166 -180.5 434.499 -180.5
z" />
    <glyph glyph-name="ordfeminine" unicode="&#xaa;" horiz-adv-x="909" 
d="M791 602l-0.00195312 -20.001h-156c-0.666992 12.667 -2.66699 25.834 -6 39.501s-6 27.834 -8 42.501c-32 -26 -69.333 -48.667 -112 -68s-86 -29 -130 -29c-67.333 0 -128.833 18.167 -184.5 54.5s-83.5 92.833 -83.5 169.5c0 89.333 41.833 159.333 125.5 210
s209.5 85.667 377.5 105v41c0 36 -12.5 66.167 -37.5 90.5s-69.167 36.5 -132.5 36.5c-58 0 -97.5 -16.333 -118.5 -49s-34.5 -63.334 -40.5 -92.001l-148 30c19.333 72.667 55.333 130.167 108 172.5s122.667 63.5 210 63.5c92.667 0 167.334 -20.5 224.001 -61.5
s85 -110.167 85 -207.5v-374c0 -30 1.83301 -56.333 5.5 -79s10.834 -47.667 21.501 -75zM409.998 695.999c39.333 0 75.501 6.66895 108.501 20.002s64.833 32.666 95.5 57.999v221c-118.667 -16.667 -206.334 -40.334 -263.001 -71.001s-85 -69 -85 -115
c0 -24.667 8.5 -49.667 25.5 -75s56.5 -38 118.5 -38z" />
    <glyph glyph-name="guillemotleft" unicode="&#xab;" horiz-adv-x="1061" 
d="M279 549l274 -301l-115 -78l-317 340v80l317 340l115 -78zM676 549l274 -301l-114 -78l-318 340v80l318 340l114 -78z" />
    <glyph glyph-name="logicalnot" unicode="&#xac;" 
d="M1057 645v-557h-152v410h-805v147h957z" />
    <glyph glyph-name="uni00AD" unicode="&#xad;" horiz-adv-x="702" 
d="M594 625v-162h-485v162h485z" />
    <glyph glyph-name="registered" unicode="&#xae;" horiz-adv-x="1042" 
d="M616 893l91 -198.999h-101l-82 187h-82v-187h-92v480h195c40 0 77 -12.333 111 -37s51 -60.334 51 -107.001c0 -30.667 -7.66699 -58 -23 -82s-38 -42.333 -68 -55zM522 1382c121.333 0 225.5 -43.333 312.5 -130s130.5 -190.667 130.5 -312s-43.5 -225 -130.5 -311
s-191.167 -129 -312.5 -129c-122.667 0 -227.334 43 -314.001 129s-130 189.667 -130 311s43.333 225.333 130 312s191.334 130 314.001 130zM522 561.001c104 0 193.167 37 267.5 111s111.5 163.333 111.5 268s-37.167 194.334 -111.5 269.001s-163.5 112 -267.5 112
c-104.667 0 -194.334 -37.333 -269.001 -112s-112 -164.334 -112 -269.001s37.333 -194 112 -268s164.334 -111 269.001 -111zM537 973.001c12.667 0 27 4.33301 43 13s24 22.667 24 42s-6.66699 33.333 -20 42s-28.333 13 -45 13h-97v-110h95z" />
    <glyph glyph-name="macron" unicode="&#xaf;" horiz-adv-x="942" 
d="M774 1370v-119h-606v119h606z" />
    <glyph glyph-name="degree" unicode="&#xb0;" horiz-adv-x="977" 
d="M489 1444c89.333 0 166 -32 230 -96s96 -141.333 96 -232c0 -88.667 -32 -165 -96 -229s-140.667 -96 -230 -96c-88.667 0 -165 32 -229 96s-96 140.333 -96 229c0 90.667 32 168 96 232s140.333 96 229 96zM489 924c52 0 95.5 18.333 130.5 55s52.5 83 52.5 139
c0 57.333 -17.5 103.833 -52.5 139.5s-78.5 53.5 -130.5 53.5s-95.333 -17.833 -130 -53.5s-52 -82.167 -52 -139.5c0 -56 17.333 -102.333 52 -139s78 -55 130 -55z" />
    <glyph glyph-name="plusminus" unicode="&#xb1;" 
d="M1067 776v-147h-410v-369h-147v369h-410v147h410v369h147v-369h410zM1067 147v-147h-967v147h967z" />
    <glyph glyph-name="twosuperior" unicode="&#xb2;" horiz-adv-x="995" 
d="M815 737l-0.000976562 -123h-639v97l174 121c52 36.667 97.667 72 137 106c54 46.667 95.167 91.5 123.5 134.5s42.5 84.833 42.5 125.5c0 44 -13.5 78.5 -40.5 103.5s-66.5 37.5 -118.5 37.5s-95.667 -14.333 -131 -43s-69 -62 -101 -100l-92 98
c48 49.333 98.833 89 152.5 119s113.5 45 179.5 45c89.333 0 162.5 -23.5 219.5 -70.5s85.5 -110.833 85.5 -191.5c0 -55.333 -16.667 -107.333 -50 -156s-79.666 -98.334 -138.999 -149.001c-28.667 -23.333 -61 -48.166 -97 -74.499l-113 -79.5h407z" />
    <glyph glyph-name="threesuperior" unicode="&#xb3;" horiz-adv-x="995" 
d="M659 1044c48 -14.667 88.0029 -39.1699 120.003 -73.5029s48 -75.833 48 -124.5c0 -74.667 -32.167 -136 -96.5 -184s-147.5 -72 -249.5 -72c-66 0 -127.5 11.667 -184.5 35s-110.167 60 -159.5 110l101 88c30.667 -35.333 68.167 -63.5 112.5 -84.5
s87.833 -31.5 130.5 -31.5c53.333 0 99.166 11.833 137.499 35.5s57.5 58.834 57.5 105.501c0 40 -16.5 71.167 -49.5 93.5s-79.5 33.5 -139.5 33.5h-129v121h123c46.667 0 86.667 10.833 120 32.5s50 51.834 50 90.501c0 34 -13.833 62.833 -41.5 86.5
s-66.834 35.5 -117.501 35.5c-40.667 0 -79.334 -10.833 -116.001 -32.5s-67.667 -48.167 -93 -79.5l-103 84c48 50.667 98.667 87.5 152 110.5s108.666 34.5 165.999 34.5c90.667 0 163.834 -22 219.501 -66s83.5 -99.667 83.5 -167c0 -38.667 -13.167 -73.667 -39.5 -105
s-60.5 -56.666 -102.5 -75.999z" />
    <glyph glyph-name="acute" unicode="&#xb4;" horiz-adv-x="942" 
d="M696 1434v-11l-266 -274h-133l180 285h219z" />
    <glyph glyph-name="paragraph" unicode="&#xb6;" horiz-adv-x="1102" 
d="M973 1434v-1602h-123v1493h-148v-1493h-122v858c-160 0 -282 33 -366 99s-126 158.667 -126 278c0 65.333 14.833 123.833 44.5 175.5s67.5 92.834 113.5 123.501c34 23.333 76.667 40.5 128 51.5s111 16.5 179 16.5h420zM354 1075c0 -82.667 16.5 -144.333 49.5 -185
s91.833 -67.667 176.5 -81v516c-79.333 0 -136.833 -21.333 -172.5 -64s-53.5 -104.667 -53.5 -186z" />
    <glyph glyph-name="periodcentered" unicode="&#xb7;" horiz-adv-x="563" 
d="M397 782v-239h-229v239h229z" />
    <glyph glyph-name="cedilla" unicode="&#xb8;" horiz-adv-x="942" 
d="M483 -70c76.667 -8 124.831 -28.6709 144.498 -62.0039s29.5 -63.666 29.5 -90.999c0 -42.667 -19.667 -78.667 -59 -108s-85 -44 -137 -44c-23.333 0 -49.666 2.83301 -78.999 8.5s-59.666 15.167 -90.999 28.5l31 72c21.333 -11.333 42.166 -19.666 62.499 -24.999
s37.5 -8 51.5 -8c24.667 0 46.834 6.83301 66.501 20.5s29.5 32.834 29.5 57.501c0 27.333 -11.333 48.833 -34 64.5s-55 24.834 -97 27.501l56 129h55z" />
    <glyph glyph-name="onesuperior" unicode="&#xb9;" horiz-adv-x="895" 
d="M723 727v-114.998h-500v115h183v563l-183 -71v102c60 29.333 104.833 52.666 134.5 69.999s63.5 39.666 101.5 66.999h94v-731h170z" />
    <glyph glyph-name="ordmasculine" unicode="&#xba;" horiz-adv-x="944" 
d="M471 1399c110.667 0 199.167 -38.5 265.5 -115.5s99.5 -177.167 99.5 -300.5c0 -125.333 -33.667 -226.666 -101 -303.999s-155.333 -116 -264 -116c-106.667 0 -193.667 38.667 -261 116s-101 178.666 -101 303.999c0 110.667 31.167 207.667 93.5 291
s151.833 125 268.5 125zM471 684c72 0 124.167 27.665 156.5 82.998s48.5 127.333 48.5 216c0 80.667 -15.333 150.334 -46 209.001s-83.667 88 -159 88c-72 0 -124.167 -28.167 -156.5 -84.5s-48.5 -127.166 -48.5 -212.499c0 -88.667 16.333 -160.667 49 -216
s84.667 -83 156 -83z" />
    <glyph glyph-name="guillemotright" unicode="&#xbb;" horiz-adv-x="1061" 
d="M543 590v-80l-316 -340l-114 78l272 301l-272 303l114 78zM940 590v-80l-315 -340l-115 78l272 301l-272 303l115 78z" />
    <glyph glyph-name="onequarter" unicode="&#xbc;" horiz-adv-x="2011" 
d="M723 727v-114.998h-500v115h183v563l-183 -71v102c60 29.333 104.833 52.666 134.5 69.999s63.5 39.666 101.5 66.999h94v-731h170zM1800 313.002v-116h-149v-207h-133v207h-426v90l428 565h131v-539h149zM1487 1458h145l-1075 -1485h-145zM1251 313.002h267v351z" />
    <glyph glyph-name="onehalf" unicode="&#xbd;" horiz-adv-x="2011" 
d="M1853 123v-123h-639v96l174 121.5c52 37 98 72.5 138 106.5c54 46.667 95.167 91.5 123.5 134.5s42.5 84.833 42.5 125.5c0 44 -13.667 78.5 -41 103.5s-67 37.5 -119 37.5s-95.667 -14.5 -131 -43.5s-69 -62.167 -101 -99.5l-92 98c48 48.667 98.833 88.167 152.5 118.5
s113.5 45.5 179.5 45.5c89.333 0 162.5 -23.667 219.5 -71s85.5 -111 85.5 -191c0 -55.333 -16.5 -107.333 -49.5 -156s-79.167 -98.667 -138.5 -150c-28.667 -23.333 -61 -48 -97 -74l-114 -79h407zM723 727v-114.998h-500v115h183v563l-183 -71v102
c60 29.333 104.833 52.666 134.5 69.999s63.5 39.666 101.5 66.999h94v-731h170zM1469 1458h145l-1075 -1485h-146z" />
    <glyph glyph-name="threequarters" unicode="&#xbe;" horiz-adv-x="2011" 
d="M659 1044c48 -14.667 88.0029 -39.1699 120.003 -73.5029s48 -75.833 48 -124.5c0 -74.667 -32.167 -136 -96.5 -184s-147.5 -72 -249.5 -72c-66 0 -127.5 11.667 -184.5 35s-110.167 60 -159.5 110l101 88c30.667 -35.333 68.167 -63.5 112.5 -84.5
s87.833 -31.5 130.5 -31.5c53.333 0 99.166 11.833 137.499 35.5s57.5 58.834 57.5 105.501c0 40 -16.5 71.167 -49.5 93.5s-79.5 33.5 -139.5 33.5h-129v121h123c46.667 0 86.667 10.833 120 32.5s50 51.834 50 90.501c0 34 -13.833 62.833 -41.5 86.5
s-66.834 35.5 -117.501 35.5c-40.667 0 -79.334 -10.833 -116.001 -32.5s-67.667 -48.167 -93 -79.5l-103 84c48 50.667 98.667 87.5 152 110.5s108.666 34.5 165.999 34.5c90.667 0 163.834 -22 219.501 -66s83.5 -99.667 83.5 -167c0 -38.667 -13.167 -73.667 -39.5 -105
s-60.5 -56.666 -102.5 -75.999zM1800 312.997v-116h-149v-207h-133v207h-426v90l428 565h131v-539h149zM1251 312.997h267v351zM1516 1458h145l-1075 -1485h-146z" />
    <glyph glyph-name="questiondown" unicode="&#xbf;" horiz-adv-x="1100" 
d="M850 111l170.002 -39.001c-24.667 -128.667 -80 -228.5 -166 -299.5s-193.333 -106.5 -322 -106.5c-136 0 -242.333 39 -319 117s-115 166.667 -115 266c0 40 6.16699 80 18.5 120s30.166 75.667 53.499 107c25.333 34.667 59.333 69.334 102 104.001l150 118
c27.333 20.667 49.833 43 67.5 67s26.5 51.333 26.5 82v105h154v-140c0 -46.667 -11.667 -87.167 -35 -121.5s-49.333 -64.833 -78 -91.5c-23.333 -21.333 -49.5 -43.333 -78.5 -66l-89.5 -71c-28.667 -23.333 -51.5 -53.166 -68.5 -89.499s-25.5 -73.5 -25.5 -111.5
c0 -76 23.167 -135.167 69.5 -177.5s109.833 -63.5 190.5 -63.5c77.333 0 142.166 25.667 194.499 77s85.833 122.666 100.5 213.999zM700.002 1118v-227h-227v227h227z" />
    <glyph glyph-name="Agrave" unicode="&#xc0;" 
d="M698 1434l471 -1434h-196l-137 420h-531l-129 -420h-178l475 1434h225zM354 575h432l-217 685zM535 1810l182 -280h-135l-266 270v10h219z" />
    <glyph glyph-name="Aacute" unicode="&#xc1;" 
d="M698 1434l471 -1434h-196l-137 420h-531l-129 -420h-178l475 1434h225zM354 575h432l-217 685zM854 1810v-10l-268 -270h-133l180 280h221z" />
    <glyph glyph-name="Acircumflex" unicode="&#xc2;" 
d="M698 1434l471 -1434h-196l-137 420h-531l-129 -420h-178l475 1434h225zM354 575h432l-217 685zM678 1810l195 -290h-113l-176 178l-180 -178h-113l195 290h192z" />
    <glyph glyph-name="Atilde" unicode="&#xc3;" 
d="M698 1434l471 -1434h-196l-137 420h-531l-129 -420h-178l475 1434h225zM354 575h432l-217 685zM783 1784l101.999 0.000976562c-8 -72 -28.333 -126.5 -61 -163.5s-73 -55.5 -121 -55.5c-23.333 0 -44.5 3 -63.5 9s-36.833 14.667 -53.5 26l-64.5 40.5
c-20.333 12.333 -38.5 18.5 -54.5 18.5c-21.333 0 -38.666 -6.33301 -51.999 -19s-21.333 -38.334 -24 -77.001h-100c6 73.333 25 128.5 57 165.5s73 55.5 123 55.5c28 0 53 -5 75 -15s43.667 -22.667 65 -38c14 -11.333 29.833 -21 47.5 -29s33.167 -12 46.5 -12
c25.333 0 43.833 7 55.5 21s19.167 38.333 22.5 73z" />
    <glyph glyph-name="Adieresis" unicode="&#xc4;" 
d="M698 1434l471 -1434h-196l-137 420h-531l-129 -420h-178l475 1434h225zM354 575h432l-217 685zM853 1761v-192h-172v192h172zM489 1761v-192h-172v192h172z" />
    <glyph glyph-name="Aring" unicode="&#xc5;" 
d="M583 1906c65.333 0 117.832 -20 157.499 -60s59.5 -91 59.5 -153s-21.167 -111.833 -63.5 -149.5s-94.166 -56.5 -155.499 -56.5c-62 0 -114 18.833 -156 56.5s-63 87.5 -63 149.5c0 56 19.333 105.5 58 148.5s93 64.5 163 64.5zM580.999 1564c36 0 62.5 12.667 79.5 38
s25.5 57 25.5 95c0 40.667 -8 72.834 -24 96.501s-43 35.5 -81 35.5c-38.667 0 -65.667 -12.333 -81 -37s-23 -56.334 -23 -95.001c0 -37.333 8.16699 -68.833 24.5 -94.5s42.833 -38.5 79.5 -38.5zM697.999 1434l471 -1434h-196l-137 420h-531l-129 -420h-178l475 1434h225
zM353.999 575h432l-217 685z" />
    <glyph glyph-name="AE" unicode="&#xc6;" horiz-adv-x="1858" 
d="M1806 164v-164h-932v420h-503l-205 -420h-191l725 1434h1088v-164h-719v-457h508v-162h-508v-487h737zM446 575h428v697h-86z" />
    <glyph glyph-name="Ccedilla" unicode="&#xc7;" horiz-adv-x="1260" 
d="M1065 485l154 -40.9961c-38.667 -154.667 -104.667 -270.334 -198 -347.001s-204.333 -116.667 -333 -120l-18 -49c80 -8.66699 130.333 -29.834 151 -63.501s31 -64.834 31 -93.501c0 -44 -20.667 -81 -62 -111s-89.666 -45 -144.999 -45c-24.667 0 -52 3.5 -82 10.5
s-62 17.167 -96 30.5l33 80c22.667 -11.333 44.667 -20.333 66 -27s39.666 -10 54.999 -10c23.333 0 44.833 6.5 64.5 19.5s29.5 31.167 29.5 54.5c0 26.667 -12.333 47.834 -37 63.501s-59 24.5 -103 26.5l50 117c-161.333 10 -292.5 79.167 -393.5 207.5
s-151.5 304.166 -151.5 527.499c0 218.667 54.667 397.167 164 535.5s253.333 207.5 432 207.5c139.333 0 254 -40.833 344 -122.5s150.667 -195.834 182 -342.501l-194 -28c-17.333 96.667 -55.333 176.334 -114 239.001s-132.667 94 -222 94
c-115.333 0 -208 -51.5 -278 -154.5s-105 -245.167 -105 -426.5c0 -188.667 36.333 -332.834 109 -432.501s166 -149.5 280 -149.5c96.667 0 178.167 29.833 244.5 89.5s113.833 146.5 142.5 260.5z" />
    <glyph glyph-name="Egrave" unicode="&#xc8;" horiz-adv-x="1155" 
d="M1104 164v-164h-940v1434h921v-164h-727v-457h512v-162h-512v-487h746zM592 1810l182 -280h-135l-266 270v10h219z" />
    <glyph glyph-name="Eacute" unicode="&#xc9;" horiz-adv-x="1155" 
d="M1104 164v-164h-940v1434h921v-164h-727v-457h512v-162h-512v-487h746zM915 1810v-10l-268 -270h-133l180 280h221z" />
    <glyph glyph-name="Ecircumflex" unicode="&#xca;" horiz-adv-x="1155" 
d="M1104 164v-164h-940v1434h921v-164h-727v-457h512v-162h-512v-487h746zM721 1810l195 -290h-113l-176 178l-180 -178h-113l195 290h192z" />
    <glyph glyph-name="Edieresis" unicode="&#xcb;" horiz-adv-x="1155" 
d="M1104 164v-164h-940v1434h921v-164h-727v-457h512v-162h-512v-487h746zM919 1761v-192h-172v192h172zM555 1761v-192h-172v192h172z" />
    <glyph glyph-name="Igrave" unicode="&#xcc;" horiz-adv-x="535" 
d="M365 1434v-1434h-195v1434h195zM224 1810l182 -280h-135l-266 270v10h219z" />
    <glyph glyph-name="Iacute" unicode="&#xcd;" horiz-adv-x="535" 
d="M365 1434v-1434h-195v1434h195zM530 1810v-10l-268 -270h-133l180 280h221z" />
    <glyph glyph-name="Icircumflex" unicode="&#xce;" horiz-adv-x="535" 
d="M365 1434v-1434h-195v1434h195zM364 1810l195 -290h-113l-176 178l-180 -178h-113l195 290h192z" />
    <glyph glyph-name="Idieresis" unicode="&#xcf;" horiz-adv-x="535" 
d="M535 1761v-192h-172v192h172zM171 1761v-192h-172v192h172zM365 1434v-1434h-195v1434h195z" />
    <glyph glyph-name="Ntilde" unicode="&#xd1;" horiz-adv-x="1382" 
d="M1219 1434v-1434h-164l-727 1223v-1223h-164v1434h246l645 -1088v1088h164zM908 1784l101.999 0.000976562c-8 -72 -28.333 -126.5 -61 -163.5s-73 -55.5 -121 -55.5c-23.333 0 -44.5 3 -63.5 9s-36.833 14.667 -53.5 26l-64.5 40.5
c-20.333 12.333 -38.5 18.5 -54.5 18.5c-21.333 0 -38.666 -6.33301 -51.999 -19s-21.333 -38.334 -24 -77.001h-100c6 73.333 25 128.5 57 165.5s73 55.5 123 55.5c28 0 53 -5 75 -15s43.667 -22.667 65 -38c14 -11.333 29.833 -21 47.5 -29s33.167 -12 46.5 -12
c25.333 0 43.833 7 55.5 21s19.167 38.333 22.5 73z" />
    <glyph glyph-name="Ograve" unicode="&#xd2;" horiz-adv-x="1360" 
d="M1100 1272c56.667 -64 100.835 -143.331 132.502 -237.998s47.5 -200.334 47.5 -317.001c0 -108 -13.667 -206.833 -41 -296.5s-65 -165.5 -113 -227.5c-54 -69.333 -119 -123 -195 -161s-159.667 -57 -251 -57c-93.333 0 -177.833 19.333 -253.5 58
s-140.167 92.667 -193.5 162c-48.667 65.333 -86.334 142 -113.001 230s-40 185.333 -40 292c0 116.667 15.667 222.5 47 317.5s75.666 174.167 132.999 237.5c53.333 59.333 115.333 105.166 186 137.499s148.667 48.5 234 48.5s163.333 -16 234 -48s132.667 -78 186 -138z
M680.001 133.002c120.667 0 215.667 50.167 285 150.5s104 244.833 104 433.5c0 183.333 -34 326 -102 428s-163.667 153 -287 153s-219.333 -51.5 -288 -154.5s-103 -245.167 -103 -426.5c0 -189.333 35 -334 105 -434s165.333 -150 286 -150zM633.001 1810l182 -280h-135
l-266 270v10h219z" />
    <glyph glyph-name="Oacute" unicode="&#xd3;" horiz-adv-x="1360" 
d="M1100 1272c56.667 -64 100.835 -143.331 132.502 -237.998s47.5 -200.334 47.5 -317.001c0 -108 -13.667 -206.833 -41 -296.5s-65 -165.5 -113 -227.5c-54 -69.333 -119 -123 -195 -161s-159.667 -57 -251 -57c-93.333 0 -177.833 19.333 -253.5 58
s-140.167 92.667 -193.5 162c-48.667 65.333 -86.334 142 -113.001 230s-40 185.333 -40 292c0 116.667 15.667 222.5 47 317.5s75.666 174.167 132.999 237.5c53.333 59.333 115.333 105.166 186 137.499s148.667 48.5 234 48.5s163.333 -16 234 -48s132.667 -78 186 -138z
M680.001 133.002c120.667 0 215.667 50.167 285 150.5s104 244.833 104 433.5c0 183.333 -34 326 -102 428s-163.667 153 -287 153s-219.333 -51.5 -288 -154.5s-103 -245.167 -103 -426.5c0 -189.333 35 -334 105 -434s165.333 -150 286 -150zM901.001 1810v-10l-268 -270
h-133l180 280h221z" />
    <glyph glyph-name="Ocircumflex" unicode="&#xd4;" horiz-adv-x="1360" 
d="M1100 1272c56.667 -64 100.835 -143.331 132.502 -237.998s47.5 -200.334 47.5 -317.001c0 -108 -13.667 -206.833 -41 -296.5s-65 -165.5 -113 -227.5c-54 -69.333 -119 -123 -195 -161s-159.667 -57 -251 -57c-93.333 0 -177.833 19.333 -253.5 58
s-140.167 92.667 -193.5 162c-48.667 65.333 -86.334 142 -113.001 230s-40 185.333 -40 292c0 116.667 15.667 222.5 47 317.5s75.666 174.167 132.999 237.5c53.333 59.333 115.333 105.166 186 137.499s148.667 48.5 234 48.5s163.333 -16 234 -48s132.667 -78 186 -138z
M680.001 133.002c120.667 0 215.667 50.167 285 150.5s104 244.833 104 433.5c0 183.333 -34 326 -102 428s-163.667 153 -287 153s-219.333 -51.5 -288 -154.5s-103 -245.167 -103 -426.5c0 -189.333 35 -334 105 -434s165.333 -150 286 -150zM774.001 1810l195 -290h-113
l-176 178l-180 -178h-113l195 290h192z" />
    <glyph glyph-name="Otilde" unicode="&#xd5;" horiz-adv-x="1360" 
d="M1100 1272c56.667 -64 100.835 -143.331 132.502 -237.998s47.5 -200.334 47.5 -317.001c0 -108 -13.667 -206.833 -41 -296.5s-65 -165.5 -113 -227.5c-54 -69.333 -119 -123 -195 -161s-159.667 -57 -251 -57c-93.333 0 -177.833 19.333 -253.5 58
s-140.167 92.667 -193.5 162c-48.667 65.333 -86.334 142 -113.001 230s-40 185.333 -40 292c0 116.667 15.667 222.5 47 317.5s75.666 174.167 132.999 237.5c53.333 59.333 115.333 105.166 186 137.499s148.667 48.5 234 48.5s163.333 -16 234 -48s132.667 -78 186 -138z
M680.001 133.002c120.667 0 215.667 50.167 285 150.5s104 244.833 104 433.5c0 183.333 -34 326 -102 428s-163.667 153 -287 153s-219.333 -51.5 -288 -154.5s-103 -245.167 -103 -426.5c0 -189.333 35 -334 105 -434s165.333 -150 286 -150zM881.001 1784
l101.999 0.000976562c-8 -72 -28.333 -126.5 -61 -163.5s-73 -55.5 -121 -55.5c-23.333 0 -44.5 3 -63.5 9s-36.833 14.667 -53.5 26l-64.5 40.5c-20.333 12.333 -38.5 18.5 -54.5 18.5c-21.333 0 -38.666 -6.33301 -51.999 -19s-21.333 -38.334 -24 -77.001h-100
c6 73.333 25 128.5 57 165.5s73 55.5 123 55.5c28 0 53 -5 75 -15s43.667 -22.667 65 -38c14 -11.333 29.833 -21 47.5 -29s33.167 -12 46.5 -12c25.333 0 43.833 7 55.5 21s19.167 38.333 22.5 73z" />
    <glyph glyph-name="Odieresis" unicode="&#xd6;" horiz-adv-x="1360" 
d="M1100 1272c56.667 -64 100.835 -143.331 132.502 -237.998s47.5 -200.334 47.5 -317.001c0 -108 -13.667 -206.833 -41 -296.5s-65 -165.5 -113 -227.5c-54 -69.333 -119 -123 -195 -161s-159.667 -57 -251 -57c-93.333 0 -177.833 19.333 -253.5 58
s-140.167 92.667 -193.5 162c-48.667 65.333 -86.334 142 -113.001 230s-40 185.333 -40 292c0 116.667 15.667 222.5 47 317.5s75.666 174.167 132.999 237.5c53.333 59.333 115.333 105.166 186 137.499s148.667 48.5 234 48.5s163.333 -16 234 -48s132.667 -78 186 -138z
M680.001 133.002c120.667 0 215.667 50.167 285 150.5s104 244.833 104 433.5c0 183.333 -34 326 -102 428s-163.667 153 -287 153s-219.333 -51.5 -288 -154.5s-103 -245.167 -103 -426.5c0 -189.333 35 -334 105 -434s165.333 -150 286 -150zM948.001 1761v-192h-172v192
h172zM584.001 1761v-192h-172v192h172z" />
    <glyph glyph-name="multiply" unicode="&#xd7;" 
d="M684 551l352 -348l-104 -103l-346 351l-348 -351l-103 103l348 348l-348 346l103 104l348 -352l346 352l104 -104z" />
    <glyph glyph-name="Oslash" unicode="&#xd8;" horiz-adv-x="0" 
 />
    <glyph glyph-name="Ugrave" unicode="&#xd9;" horiz-adv-x="1337" 
d="M1182 1434l0.00195312 -896.998c0 -48 -2.5 -93.5 -7.5 -136.5s-14.167 -83.5 -27.5 -121.5c-32.667 -100 -89.334 -175.667 -170.001 -227s-184.334 -77 -311.001 -77c-132.667 0 -240 29 -322 87s-137.333 143 -166 255c-8 30.667 -14 64.167 -18 100.5
s-6 73.166 -6 110.499v906h196v-895c0 -48 3.16699 -92.5 9.5 -133.5s16.833 -77.167 31.5 -108.5c24.667 -52 60.5 -92 107.5 -120s106.833 -42 179.5 -42c72 0 131.667 13 179 39s84 63 110 111c16 32.667 27.833 70.167 35.5 112.5s11.5 90.166 11.5 143.499v893h168z
M631.002 1810l182 -280h-135l-266 270v10h219z" />
    <glyph glyph-name="Uacute" unicode="&#xda;" horiz-adv-x="1337" 
d="M975 1810v-10l-268 -270h-133l180 280h221zM1182 1434l0.00195312 -896.998c0 -48 -2.5 -93.5 -7.5 -136.5s-14.167 -83.5 -27.5 -121.5c-32.667 -100 -89.334 -175.667 -170.001 -227s-184.334 -77 -311.001 -77c-132.667 0 -240 29 -322 87s-137.333 143 -166 255
c-8 30.667 -14 64.167 -18 100.5s-6 73.166 -6 110.499v906h196v-895c0 -48 3.16699 -92.5 9.5 -133.5s16.833 -77.167 31.5 -108.5c24.667 -52 60.5 -92 107.5 -120s106.833 -42 179.5 -42c72 0 131.667 13 179 39s84 63 110 111c16 32.667 27.833 70.167 35.5 112.5
s11.5 90.166 11.5 143.499v893h168z" />
    <glyph glyph-name="Ucircumflex" unicode="&#xdb;" horiz-adv-x="1337" 
d="M1182 1434l0.00195312 -896.998c0 -48 -2.5 -93.5 -7.5 -136.5s-14.167 -83.5 -27.5 -121.5c-32.667 -100 -89.334 -175.667 -170.001 -227s-184.334 -77 -311.001 -77c-132.667 0 -240 29 -322 87s-137.333 143 -166 255c-8 30.667 -14 64.167 -18 100.5
s-6 73.166 -6 110.499v906h196v-895c0 -48 3.16699 -92.5 9.5 -133.5s16.833 -77.167 31.5 -108.5c24.667 -52 60.5 -92 107.5 -120s106.833 -42 179.5 -42c72 0 131.667 13 179 39s84 63 110 111c16 32.667 27.833 70.167 35.5 112.5s11.5 90.166 11.5 143.499v893h168z
M770.002 1810l195 -290h-113l-176 178l-180 -178h-113l195 290h192z" />
    <glyph glyph-name="Udieresis" unicode="&#xdc;" horiz-adv-x="1337" 
d="M1182 1434l0.00195312 -896.998c0 -48 -2.5 -93.5 -7.5 -136.5s-14.167 -83.5 -27.5 -121.5c-32.667 -100 -89.334 -175.667 -170.001 -227s-184.334 -77 -311.001 -77c-132.667 0 -240 29 -322 87s-137.333 143 -166 255c-8 30.667 -14 64.167 -18 100.5
s-6 73.166 -6 110.499v906h196v-895c0 -48 3.16699 -92.5 9.5 -133.5s16.833 -77.167 31.5 -108.5c24.667 -52 60.5 -92 107.5 -120s106.833 -42 179.5 -42c72 0 131.667 13 179 39s84 63 110 111c16 32.667 27.833 70.167 35.5 112.5s11.5 90.166 11.5 143.499v893h168z
M942.002 1761v-192h-172v192h172zM578.002 1761v-192h-172v192h172z" />
    <glyph glyph-name="Yacute" unicode="&#xdd;" horiz-adv-x="1171" 
d="M995 1434h187l-498 -865v-569h-195v565l-499 869h217l395 -703zM897 1810v-10l-268 -270h-133l180 280h221z" />
    <glyph glyph-name="germandbls" unicode="&#xdf;" horiz-adv-x="1094" 
d="M696 838c102.667 -22.667 182.666 -67.8301 239.999 -135.497s86 -153.834 86 -258.501c0 -133.333 -42.333 -244 -127 -332s-194 -132 -328 -132c-25.333 0 -48.666 1.16699 -69.999 3.5s-41.666 5.83301 -60.999 10.5c0.666992 0 6.5 23.333 17.5 70
s16.833 69.667 17.5 69c18.667 -4.66699 36.167 -7.83398 52.5 -9.50098s32.833 -2.5 49.5 -2.5c96 0 164.167 32.167 204.5 96.5s60.5 142.166 60.5 233.499c0 103.333 -30.5 180.666 -91.5 231.999s-154.833 77 -281.5 77v133c108 0 181.667 21.333 221 64s59 99 59 169
c0 42 -14.5 83 -43.5 123s-78.5 60 -148.5 60c-61.333 0 -116.333 -21.833 -165 -65.5s-73 -125.167 -73 -244.5v-999h-176v991c0 154 41 268 123 342s180.333 111 295 111c99.333 0 185.666 -25.5 258.999 -76.5s110 -125.833 110 -224.5c0 -70.667 -21 -132.667 -63 -186
s-97.667 -89.666 -167 -108.999v-10z" />
    <glyph glyph-name="agrave" unicode="&#xe0;" horiz-adv-x="1047" 
d="M495 1434l180 -285h-131l-268 274v11h219zM948 10l0.00292969 -9.99902h-178c-0.666992 12.667 -4 30 -10 52s-9.33301 46.333 -10 73c-42 -38 -93.333 -71.333 -154 -100s-122 -43 -184 -43c-98 0 -179.833 24.667 -245.5 74s-98.5 118.666 -98.5 207.999
c0 113.333 55 203.166 165 269.499s279.333 111.833 508 136.5v67c0 60 -20.5 105.833 -61.5 137.5s-100.833 47.5 -179.5 47.5c-60 0 -109 -15.667 -147 -47s-64.333 -77.333 -79 -138l-165 33c22 89.333 67.167 159.833 135.5 211.5s158.166 77.5 269.499 77.5
c85.333 0 155.666 -11.167 210.999 -33.5s97.666 -52.833 126.999 -91.5c20.667 -27.333 36 -59.166 46 -95.499s15 -76.833 15 -121.5v-500c0 -59.333 4.16699 -103.833 12.5 -133.5s15.833 -54.167 22.5 -73.5zM453.003 125.001c56.667 0 108.333 9.33203 155 27.999
s91 46.334 133 83.001v317c-162.667 -22.667 -285.5 -55 -368.5 -97s-124.5 -97.667 -124.5 -167c0 -53.333 16.333 -94 49 -122s84.667 -42 156 -42z" />
    <glyph glyph-name="aacute" unicode="&#xe1;" horiz-adv-x="1047" 
d="M745 1434v-11l-266 -274h-133l180 285h219zM948 10l0.00292969 -9.99902h-178c-0.666992 12.667 -4 30 -10 52s-9.33301 46.333 -10 73c-42 -38 -93.333 -71.333 -154 -100s-122 -43 -184 -43c-98 0 -179.833 24.667 -245.5 74s-98.5 118.666 -98.5 207.999
c0 113.333 55 203.166 165 269.499s279.333 111.833 508 136.5v67c0 60 -20.5 105.833 -61.5 137.5s-100.833 47.5 -179.5 47.5c-60 0 -109 -15.667 -147 -47s-64.333 -77.333 -79 -138l-165 33c22 89.333 67.167 159.833 135.5 211.5s158.166 77.5 269.499 77.5
c85.333 0 155.666 -11.167 210.999 -33.5s97.666 -52.833 126.999 -91.5c20.667 -27.333 36 -59.166 46 -95.499s15 -76.833 15 -121.5v-500c0 -59.333 4.16699 -103.833 12.5 -133.5s15.833 -54.167 22.5 -73.5zM453.003 125.001c56.667 0 108.333 9.33203 155 27.999
s91 46.334 133 83.001v317c-162.667 -22.667 -285.5 -55 -368.5 -97s-124.5 -97.667 -124.5 -167c0 -53.333 16.333 -94 49 -122s84.667 -42 156 -42z" />
    <glyph glyph-name="acircumflex" unicode="&#xe2;" horiz-adv-x="1047" 
d="M948 10l0.00292969 -9.99902h-178c-0.666992 12.667 -4 30 -10 52s-9.33301 46.333 -10 73c-42 -38 -93.333 -71.333 -154 -100s-122 -43 -184 -43c-98 0 -179.833 24.667 -245.5 74s-98.5 118.666 -98.5 207.999c0 113.333 55 203.166 165 269.499
s279.333 111.833 508 136.5v67c0 60 -20.5 105.833 -61.5 137.5s-100.833 47.5 -179.5 47.5c-60 0 -109 -15.667 -147 -47s-64.333 -77.333 -79 -138l-165 33c22 89.333 67.167 159.833 135.5 211.5s158.166 77.5 269.499 77.5c85.333 0 155.666 -11.167 210.999 -33.5
s97.666 -52.833 126.999 -91.5c20.667 -27.333 36 -59.166 46 -95.499s15 -76.833 15 -121.5v-500c0 -59.333 4.16699 -103.833 12.5 -133.5s15.833 -54.167 22.5 -73.5zM453.003 125.001c56.667 0 108.333 9.33203 155 27.999s91 46.334 133 83.001v317
c-162.667 -22.667 -285.5 -55 -368.5 -97s-124.5 -97.667 -124.5 -167c0 -53.333 16.333 -94 49 -122s84.667 -42 156 -42zM602.002 1434l195 -295h-113l-176 182l-180 -182h-113l195 295h192z" />
    <glyph glyph-name="atilde" unicode="&#xe3;" horiz-adv-x="1047" 
d="M948 10l0.00292969 -9.99902h-178c-0.666992 12.667 -4 30 -10 52s-9.33301 46.333 -10 73c-42 -38 -93.333 -71.333 -154 -100s-122 -43 -184 -43c-98 0 -179.833 24.667 -245.5 74s-98.5 118.666 -98.5 207.999c0 113.333 55 203.166 165 269.499
s279.333 111.833 508 136.5v67c0 60 -20.5 105.833 -61.5 137.5s-100.833 47.5 -179.5 47.5c-60 0 -109 -15.667 -147 -47s-64.333 -77.333 -79 -138l-165 33c22 89.333 67.167 159.833 135.5 211.5s158.166 77.5 269.499 77.5c85.333 0 155.666 -11.167 210.999 -33.5
s97.666 -52.833 126.999 -91.5c20.667 -27.333 36 -59.166 46 -95.499s15 -76.833 15 -121.5v-500c0 -59.333 4.16699 -103.833 12.5 -133.5s15.833 -54.167 22.5 -73.5zM453.003 125.001c56.667 0 108.333 9.33203 155 27.999s91 46.334 133 83.001v317
c-162.667 -22.667 -285.5 -55 -368.5 -97s-124.5 -97.667 -124.5 -167c0 -53.333 16.333 -94 49 -122s84.667 -42 156 -42zM707.002 1411l101.999 0.000976562c-8 -72 -28.333 -126.5 -61 -163.5s-73 -55.5 -121 -55.5c-23.333 0 -44.5 3 -63.5 9s-36.833 14.667 -53.5 26
l-64.5 40.5c-20.333 12.333 -38.5 18.5 -54.5 18.5c-21.333 0 -38.666 -6.33301 -51.999 -19s-21.333 -38.334 -24 -77.001h-100c6 73.333 25 128.5 57 165.5s73 55.5 123 55.5c28 0 53 -5 75 -15s43.667 -22.667 65 -38c14 -11.333 29.833 -21 47.5 -29
s33.167 -12 46.5 -12c25.333 0 43.833 7 55.5 21s19.167 38.333 22.5 73z" />
    <glyph glyph-name="adieresis" unicode="&#xe4;" horiz-adv-x="1047" 
d="M948 10l0.00292969 -9.99902h-178c-0.666992 12.667 -4 30 -10 52s-9.33301 46.333 -10 73c-42 -38 -93.333 -71.333 -154 -100s-122 -43 -184 -43c-98 0 -179.833 24.667 -245.5 74s-98.5 118.666 -98.5 207.999c0 113.333 55 203.166 165 269.499
s279.333 111.833 508 136.5v67c0 60 -20.5 105.833 -61.5 137.5s-100.833 47.5 -179.5 47.5c-60 0 -109 -15.667 -147 -47s-64.333 -77.333 -79 -138l-165 33c22 89.333 67.167 159.833 135.5 211.5s158.166 77.5 269.499 77.5c85.333 0 155.666 -11.167 210.999 -33.5
s97.666 -52.833 126.999 -91.5c20.667 -27.333 36 -59.166 46 -95.499s15 -76.833 15 -121.5v-500c0 -59.333 4.16699 -103.833 12.5 -133.5s15.833 -54.167 22.5 -73.5zM453.003 125.001c56.667 0 108.333 9.33203 155 27.999s91 46.334 133 83.001v317
c-162.667 -22.667 -285.5 -55 -368.5 -97s-124.5 -97.667 -124.5 -167c0 -53.333 16.333 -94 49 -122s84.667 -42 156 -42zM776.002 1389v-193h-170v193h170zM416.002 1389v-193h-172v193h172z" />
    <glyph glyph-name="aring" unicode="&#xe5;" horiz-adv-x="1047" 
d="M948 10l0.00292969 -9.99902h-178c-0.666992 12.667 -4 30 -10 52s-9.33301 46.333 -10 73c-42 -38 -93.333 -71.333 -154 -100s-122 -43 -184 -43c-98 0 -179.833 24.667 -245.5 74s-98.5 118.666 -98.5 207.999c0 113.333 55 203.166 165 269.499
s279.333 111.833 508 136.5v67c0 60 -20.5 105.833 -61.5 137.5s-100.833 47.5 -179.5 47.5c-60 0 -109 -15.667 -147 -47s-64.333 -77.333 -79 -138l-165 33c22 89.333 67.167 159.833 135.5 211.5s158.166 77.5 269.499 77.5c85.333 0 155.666 -11.167 210.999 -33.5
s97.666 -52.833 126.999 -91.5c20.667 -27.333 36 -59.166 46 -95.499s15 -76.833 15 -121.5v-500c0 -59.333 4.16699 -103.833 12.5 -133.5s15.833 -54.167 22.5 -73.5zM453.003 125.001c56.667 0 108.333 9.33203 155 27.999s91 46.334 133 83.001v317
c-162.667 -22.667 -285.5 -55 -368.5 -97s-124.5 -97.667 -124.5 -167c0 -53.333 16.333 -94 49 -122s84.667 -42 156 -42zM520.002 1552c65.333 0 117.832 -20 157.499 -60s59.5 -91 59.5 -153s-21.167 -111.833 -63.5 -149.5s-94.166 -56.5 -155.499 -56.5
c-62 0 -114 18.833 -156 56.5s-63 87.5 -63 149.5c0 56 19.333 105.5 58 148.5s93 64.5 163 64.5zM518.001 1210c36 0 62.5 12.667 79.5 38s25.5 57 25.5 95c0 40.667 -8 72.834 -24 96.501s-43 35.5 -81 35.5c-38.667 0 -65.667 -12.333 -81 -37s-23 -56.334 -23 -95.001
c0 -37.333 8.16699 -68.833 24.5 -94.5s42.833 -38.5 79.5 -38.5z" />
    <glyph glyph-name="ae" unicode="&#xe6;" horiz-adv-x="1704" 
d="M1511 301l129.001 -70.001c-38.667 -68 -96 -126.833 -172 -176.5s-168 -74.5 -276 -74.5c-83.333 0 -156 16.333 -218 49s-112.333 77.667 -151 135c-78.667 -72.667 -149.5 -121.167 -212.5 -145.5s-129.167 -36.5 -198.5 -36.5c-98 0 -179.833 24.667 -245.5 74
s-98.5 118.666 -98.5 207.999c0 113.333 55 202.5 165 267.5s279.333 109.833 508 134.5v69c0 61.333 -20.5 107.833 -61.5 139.5s-100.833 47.5 -179.5 47.5c-60 0 -109 -15.667 -147 -47s-64.333 -77.333 -79 -138l-165 33c22 89.333 67.167 159.833 135.5 211.5
s158.166 77.5 269.499 77.5c82.667 0 153.5 -12.833 212.5 -38.5s103.5 -64.834 133.5 -117.501c40 46.667 88 84.334 144 113.001s118 43 186 43c82.667 0 155.167 -16.167 217.5 -48.5s112.833 -81.166 151.5 -146.499c26.667 -44.667 46.5 -96.5 59.5 -155.5
s19.5 -123.167 19.5 -192.5v-16h-741c0 -118.667 29 -211.5 87 -278.5s132.667 -100.5 224 -100.5c72.667 0 134.5 17.333 185.5 52s90.167 77.334 117.5 128.001zM453.001 124.999c56.667 0 108.333 9.33105 155 27.998s91 46.334 133 83.001v309
c-162.667 -22.667 -285.5 -53.667 -368.5 -93s-124.5 -93.666 -124.5 -162.999c0 -53.333 16.333 -94 49 -122s84.667 -42 156 -42zM903 620.997h559c0 90 -22.167 162.667 -66.5 218s-108.833 83 -193.5 83c-92 0 -164.333 -29.667 -217 -89s-80 -130 -82 -212z" />
    <glyph glyph-name="ccedilla" unicode="&#xe7;" horiz-adv-x="987" 
d="M813 342l128.997 -41.002c-22.667 -86.667 -67.167 -161.834 -133.5 -225.501s-153.5 -95.5 -261.5 -95.5l-21 -50c76.667 -8 124.5 -28.667 143.5 -62s28.5 -63.666 28.5 -90.999c0 -42.667 -19.667 -78.667 -59 -108s-85 -44 -137 -44
c-23.333 0 -49.666 2.83301 -78.999 8.5s-59.666 15.167 -90.999 28.5l30 76c22 -11.333 43.167 -20.333 63.5 -27s37.5 -10 51.5 -10c24.667 0 46.834 6.83301 66.501 20.5s29.5 32.834 29.5 57.501c0 27.333 -11.333 48.833 -34 64.5s-55 24.834 -97 27.501l47 111
c-122.667 12 -222.834 65.5 -300.501 160.5s-116.5 221.5 -116.5 379.5c0 144 41.167 269.5 123.5 376.5s195.5 160.5 339.5 160.5c118 0 210 -30.167 276 -90.5s108.333 -136.166 127 -227.499l-166 -28c-6.66699 37.333 -25.167 81.166 -55.5 131.499
s-88.166 75.5 -173.499 75.5c-106 0 -180.333 -41.333 -223 -124s-64 -178 -64 -286c0 -112.667 23.5 -205.667 70.5 -279s120.5 -110 220.5 -110c88.667 0 151.5 24.333 188.5 73s62.833 98 77.5 148z" />
    <glyph glyph-name="egrave" unicode="&#xe8;" horiz-adv-x="1061" 
d="M868 301l129 -70.0029c-38.667 -68 -96 -126.833 -172 -176.5s-168.667 -74.5 -278 -74.5c-144.667 0 -260 48.833 -346 146.5s-129 222.834 -129 375.501c0 157.333 43.833 289.5 131.5 396.5s201.5 160.5 341.5 160.5c82.667 0 155.5 -16.5 218.5 -49.5
s113.5 -82.167 151.5 -147.5c26.667 -44.667 46.667 -96.167 60 -154.5s20 -122.166 20 -191.499v-18h-745c0 -118.667 29.333 -211.167 88 -277.5s133.667 -99.5 225 -99.5c74 0 136.5 17.333 187.5 52s90.167 77.334 117.5 128.001zM256 620.997h562.999
c-0.666992 89.333 -23 161.833 -67 217.5s-109 83.5 -195 83.5c-93.333 0 -166.666 -30.333 -219.999 -91s-80.333 -130.667 -81 -210zM507.999 1434l180 -285h-131l-268 274v11h219z" />
    <glyph glyph-name="eacute" unicode="&#xe9;" horiz-adv-x="1061" 
d="M868 301l129 -70.0029c-38.667 -68 -96 -126.833 -172 -176.5s-168.667 -74.5 -278 -74.5c-144.667 0 -260 48.833 -346 146.5s-129 222.834 -129 375.501c0 157.333 43.833 289.5 131.5 396.5s201.5 160.5 341.5 160.5c82.667 0 155.5 -16.5 218.5 -49.5
s113.5 -82.167 151.5 -147.5c26.667 -44.667 46.667 -96.167 60 -154.5s20 -122.166 20 -191.499v-18h-745c0 -118.667 29.333 -211.167 88 -277.5s133.667 -99.5 225 -99.5c74 0 136.5 17.333 187.5 52s90.167 77.334 117.5 128.001zM256 620.997h562.999
c-0.666992 89.333 -23 161.833 -67 217.5s-109 83.5 -195 83.5c-93.333 0 -166.666 -30.333 -219.999 -91s-80.333 -130.667 -81 -210zM785.999 1434v-11l-266 -274h-133l180 285h219z" />
    <glyph glyph-name="ecircumflex" unicode="&#xea;" horiz-adv-x="1061" 
d="M637 1434l195 -295h-113l-176 182l-180 -182h-113l195 295h192zM868 301l129 -70.0029c-38.667 -68 -96 -126.833 -172 -176.5s-168.667 -74.5 -278 -74.5c-144.667 0 -260 48.833 -346 146.5s-129 222.834 -129 375.501c0 157.333 43.833 289.5 131.5 396.5
s201.5 160.5 341.5 160.5c82.667 0 155.5 -16.5 218.5 -49.5s113.5 -82.167 151.5 -147.5c26.667 -44.667 46.667 -96.167 60 -154.5s20 -122.166 20 -191.499v-18h-745c0 -118.667 29.333 -211.167 88 -277.5s133.667 -99.5 225 -99.5c74 0 136.5 17.333 187.5 52
s90.167 77.334 117.5 128.001zM256 620.997h562.999c-0.666992 89.333 -23 161.833 -67 217.5s-109 83.5 -195 83.5c-93.333 0 -166.666 -30.333 -219.999 -91s-80.333 -130.667 -81 -210z" />
    <glyph glyph-name="edieresis" unicode="&#xeb;" horiz-adv-x="1061" 
d="M807 1389v-193h-170v193h170zM447 1389v-193h-172v193h172zM868 301l129 -70.0029c-38.667 -68 -96 -126.833 -172 -176.5s-168.667 -74.5 -278 -74.5c-144.667 0 -260 48.833 -346 146.5s-129 222.834 -129 375.501c0 157.333 43.833 289.5 131.5 396.5
s201.5 160.5 341.5 160.5c82.667 0 155.5 -16.5 218.5 -49.5s113.5 -82.167 151.5 -147.5c26.667 -44.667 46.667 -96.167 60 -154.5s20 -122.166 20 -191.499v-18h-745c0 -118.667 29.333 -211.167 88 -277.5s133.667 -99.5 225 -99.5c74 0 136.5 17.333 187.5 52
s90.167 77.334 117.5 128.001zM256 620.997h562.999c-0.666992 89.333 -23 161.833 -67 217.5s-109 83.5 -195 83.5c-93.333 0 -166.666 -30.333 -219.999 -91s-80.333 -130.667 -81 -210z" />
    <glyph glyph-name="igrave" unicode="&#xec;" horiz-adv-x="475" 
d="M191 1434l180 -285h-131l-268 274v11h219zM324 1040v-1040h-174v1040h174z" />
    <glyph glyph-name="iacute" unicode="&#xed;" horiz-adv-x="475" 
d="M504 1434v-11l-266 -274h-133l180 285h219zM324 1040v-1040h-174v1040h174z" />
    <glyph glyph-name="icircumflex" unicode="&#xee;" horiz-adv-x="487" 
d="M330 1434l176 -295h-107l-155 182l-160 -182h-107l177 295h176zM330 1040v-1040h-174v1040h174z" />
    <glyph glyph-name="idieresis" unicode="&#xef;" horiz-adv-x="487" 
d="M174 1378v-182h-164v182h164zM475 1378v-182h-160v182h160zM330 1040v-1040h-174v1040h174z" />
    <glyph glyph-name="ntilde" unicode="&#xf1;" horiz-adv-x="1098" 
d="M969 711v-711.001h-178v707c0 60 -14.167 108.667 -42.5 146s-79.166 56 -152.499 56c-62 0 -117.833 -17.833 -167.5 -53.5s-87.5 -64.167 -113.5 -85.5v-770h-176v1040h172v-153c32 32.667 75.833 69.5 131.5 110.5s130.167 61.5 223.5 61.5
c69.333 0 126.666 -15.667 171.999 -47s77.333 -68.333 96 -111c13.333 -30.667 22.5 -62.167 27.5 -94.5s7.5 -64.166 7.5 -95.499zM758 1411l101.999 0.000976562c-8 -72 -28.333 -126.5 -61 -163.5s-73 -55.5 -121 -55.5c-23.333 0 -44.5 3 -63.5 9
s-36.833 14.667 -53.5 26l-64.5 40.5c-20.333 12.333 -38.5 18.5 -54.5 18.5c-21.333 0 -38.666 -6.33301 -51.999 -19s-21.333 -38.334 -24 -77.001h-100c6 73.333 25 128.5 57 165.5s73 55.5 123 55.5c28 0 53 -5 75 -15s43.667 -22.667 65 -38
c14 -11.333 29.833 -21 47.5 -29s33.167 -12 46.5 -12c25.333 0 43.833 7 55.5 21s19.167 38.333 22.5 73z" />
    <glyph glyph-name="ograve" unicode="&#xf2;" horiz-adv-x="1075" 
d="M537 1059c143.333 0 257.333 -49.499 342 -148.499s127 -228.5 127 -388.5c0 -162.667 -42.833 -293.667 -128.5 -393s-199.167 -149 -340.5 -149c-138.667 0 -250.834 49.667 -336.501 149s-128.5 230.333 -128.5 393c0 155.333 41.833 283.666 125.5 384.999
s196.834 152 339.501 152zM537 121.001c92.667 0 162.833 34.833 210.5 104.5s71.5 168.5 71.5 296.5c0 126.667 -24 224.667 -72 294s-118 104 -210 104c-95.333 0 -166 -36 -212 -108s-69 -168.667 -69 -290c0 -124.667 23.167 -222.667 69.5 -294
s116.833 -107 211.5 -107zM497.999 1434l180 -285h-131l-268 274v11h219z" />
    <glyph glyph-name="oacute" unicode="&#xf3;" horiz-adv-x="1075" 
d="M537 1059c143.333 0 257.333 -49.499 342 -148.499s127 -228.5 127 -388.5c0 -162.667 -42.833 -293.667 -128.5 -393s-199.167 -149 -340.5 -149c-138.667 0 -250.834 49.667 -336.501 149s-128.5 230.333 -128.5 393c0 155.333 41.833 283.666 125.5 384.999
s196.834 152 339.501 152zM537 121.001c92.667 0 162.833 34.833 210.5 104.5s71.5 168.5 71.5 296.5c0 126.667 -24 224.667 -72 294s-118 104 -210 104c-95.333 0 -166 -36 -212 -108s-69 -168.667 -69 -290c0 -124.667 23.167 -222.667 69.5 -294
s116.833 -107 211.5 -107zM775.999 1434v-11l-266 -274h-133l180 285h219z" />
    <glyph glyph-name="ocircumflex" unicode="&#xf4;" horiz-adv-x="1075" 
d="M629 1434l195 -295h-113l-176 182l-180 -182h-113l195 295h192zM537 1059c143.333 0 257.333 -49.499 342 -148.499s127 -228.5 127 -388.5c0 -162.667 -42.833 -293.667 -128.5 -393s-199.167 -149 -340.5 -149c-138.667 0 -250.834 49.667 -336.501 149
s-128.5 230.333 -128.5 393c0 155.333 41.833 283.666 125.5 384.999s196.834 152 339.501 152zM537 121.001c92.667 0 162.833 34.833 210.5 104.5s71.5 168.5 71.5 296.5c0 126.667 -24 224.667 -72 294s-118 104 -210 104c-95.333 0 -166 -36 -212 -108
s-69 -168.667 -69 -290c0 -124.667 23.167 -222.667 69.5 -294s116.833 -107 211.5 -107z" />
    <glyph glyph-name="otilde" unicode="&#xf5;" horiz-adv-x="1075" 
d="M537 1059c143.333 0 257.333 -49.499 342 -148.499s127 -228.5 127 -388.5c0 -162.667 -42.833 -293.667 -128.5 -393s-199.167 -149 -340.5 -149c-138.667 0 -250.834 49.667 -336.501 149s-128.5 230.333 -128.5 393c0 155.333 41.833 283.666 125.5 384.999
s196.834 152 339.501 152zM537 121.001c92.667 0 162.833 34.833 210.5 104.5s71.5 168.5 71.5 296.5c0 126.667 -24 224.667 -72 294s-118 104 -210 104c-95.333 0 -166 -36 -212 -108s-69 -168.667 -69 -290c0 -124.667 23.167 -222.667 69.5 -294
s116.833 -107 211.5 -107zM733.999 1411l101.999 0.000976562c-8 -72 -28.333 -126.5 -61 -163.5s-73 -55.5 -121 -55.5c-23.333 0 -44.5 3 -63.5 9s-36.833 14.667 -53.5 26l-64.5 40.5c-20.333 12.333 -38.5 18.5 -54.5 18.5c-21.333 0 -38.666 -6.33301 -51.999 -19
s-21.333 -38.334 -24 -77.001h-100c6 73.333 25 128.5 57 165.5s73 55.5 123 55.5c28 0 53 -5 75 -15s43.667 -22.667 65 -38c14 -11.333 29.833 -21 47.5 -29s33.167 -12 46.5 -12c25.333 0 43.833 7 55.5 21s19.167 38.333 22.5 73z" />
    <glyph glyph-name="odieresis" unicode="&#xf6;" horiz-adv-x="1075" 
d="M804 1389v-193h-170v193h170zM444 1389v-193h-172v193h172zM537 1059c143.333 0 257.333 -49.499 342 -148.499s127 -228.5 127 -388.5c0 -162.667 -42.833 -293.667 -128.5 -393s-199.167 -149 -340.5 -149c-138.667 0 -250.834 49.667 -336.501 149
s-128.5 230.333 -128.5 393c0 155.333 41.833 283.666 125.5 384.999s196.834 152 339.501 152zM537 121.001c92.667 0 162.833 34.833 210.5 104.5s71.5 168.5 71.5 296.5c0 126.667 -24 224.667 -72 294s-118 104 -210 104c-95.333 0 -166 -36 -212 -108
s-69 -168.667 -69 -290c0 -124.667 23.167 -222.667 69.5 -294s116.833 -107 211.5 -107z" />
    <glyph glyph-name="divide" unicode="&#xf7;" 
d="M586 297c31.333 0 59.332 -12 83.999 -36s37 -53 37 -87c0 -31.333 -12.333 -59 -37 -83s-52.667 -36 -84 -36c-34 0 -63 12.333 -87 37s-36 52.667 -36 84c0 32.667 12.333 61 37 85s53.334 36 86.001 36zM585.999 1047c31.333 0 59 -12.168 83 -36.501
s36 -53.166 36 -86.499c0 -32 -12.167 -59.833 -36.5 -83.5s-51.833 -35.5 -82.5 -35.5c-34 0 -63 12 -87 36s-36 52.333 -36 85c0 33.333 12 61.833 36 85.5s53 35.5 87 35.5zM1067 624.999v-148h-967v148h967z" />
    <glyph glyph-name="ugrave" unicode="&#xf9;" horiz-adv-x="1096" 
d="M954 1040l-0.000976562 -1040h-170v154c-37.333 -43.333 -85.166 -82.833 -143.499 -118.5s-128.5 -53.5 -210.5 -53.5c-67.333 0 -123.833 15.5 -169.5 46.5s-77.834 67.833 -96.501 110.5c-13.333 30.667 -21.833 62.167 -25.5 94.5s-5.5 64.5 -5.5 96.5v710h174v-706
c0 -59.333 14.333 -107.666 43 -144.999s79.334 -56 152.001 -56c52 0 103.667 15.667 155 47s92.333 61.333 123 90v770h174zM511.999 1434l180 -285h-131l-268 274v11h219z" />
    <glyph glyph-name="uacute" unicode="&#xfa;" horiz-adv-x="1096" 
d="M791 1434v-11l-266 -274h-133l180 285h219zM954 1040l-0.000976562 -1040h-170v154c-37.333 -43.333 -85.166 -82.833 -143.499 -118.5s-128.5 -53.5 -210.5 -53.5c-67.333 0 -123.833 15.5 -169.5 46.5s-77.834 67.833 -96.501 110.5
c-13.333 30.667 -21.833 62.167 -25.5 94.5s-5.5 64.5 -5.5 96.5v710h174v-706c0 -59.333 14.333 -107.666 43 -144.999s79.334 -56 152.001 -56c52 0 103.667 15.667 155 47s92.333 61.333 123 90v770h174z" />
    <glyph glyph-name="ucircumflex" unicode="&#xfb;" horiz-adv-x="1096" 
d="M636 1434l195 -295h-113l-176 182l-180 -182h-113l195 295h192zM954 1040l-0.000976562 -1040h-170v154c-37.333 -43.333 -85.166 -82.833 -143.499 -118.5s-128.5 -53.5 -210.5 -53.5c-67.333 0 -123.833 15.5 -169.5 46.5s-77.834 67.833 -96.501 110.5
c-13.333 30.667 -21.833 62.167 -25.5 94.5s-5.5 64.5 -5.5 96.5v710h174v-706c0 -59.333 14.333 -107.666 43 -144.999s79.334 -56 152.001 -56c52 0 103.667 15.667 155 47s92.333 61.333 123 90v770h174z" />
    <glyph glyph-name="udieresis" unicode="&#xfc;" horiz-adv-x="1096" 
d="M954 1040l-0.000976562 -1040h-170v154c-37.333 -43.333 -85.166 -82.833 -143.499 -118.5s-128.5 -53.5 -210.5 -53.5c-67.333 0 -123.833 15.5 -169.5 46.5s-77.834 67.833 -96.501 110.5c-13.333 30.667 -21.833 62.167 -25.5 94.5s-5.5 64.5 -5.5 96.5v710h174v-706
c0 -59.333 14.333 -107.666 43 -144.999s79.334 -56 152.001 -56c52 0 103.667 15.667 155 47s92.333 61.333 123 90v770h174zM812.999 1389v-193h-170v193h170zM452.999 1389v-193h-172v193h172z" />
    <glyph glyph-name="yacute" unicode="&#xfd;" horiz-adv-x="922" 
d="M758 1434v-11l-266 -274h-133l180 285h219zM760 1040h158.001l-392 -1075c-40 -108 -86.833 -185.833 -140.5 -233.5s-124.167 -71.5 -211.5 -71.5c-20.667 0 -41.167 1.16699 -61.5 3.5s-40.833 5.83301 -61.5 10.5v148l66 -11.5
c21.333 -3.66699 39.666 -5.5 54.999 -5.5c61.333 0 107.833 15.667 139.5 47s56.834 80 75.501 146c0 0.666992 -10.333 29.5 -31 86.5s-31.334 86.833 -32.001 89.5l-320 866h186l289 -817z" />
    <glyph glyph-name="ydieresis" unicode="&#xff;" horiz-adv-x="922" 
d="M760 1040h158.001l-392 -1075c-40 -108 -86.833 -185.833 -140.5 -233.5s-124.167 -71.5 -211.5 -71.5c-20.667 0 -41.167 1.16699 -61.5 3.5s-40.833 5.83301 -61.5 10.5v148l66 -11.5c21.333 -3.66699 39.666 -5.5 54.999 -5.5c61.333 0 107.833 15.667 139.5 47
s56.834 80 75.501 146c0 0.666992 -10.333 29.5 -31 86.5s-31.334 86.833 -32.001 89.5l-320 866h186l289 -817zM727.001 1389v-193h-170v193h170zM367.001 1389v-193h-172v193h172z" />
    <glyph glyph-name="dotlessi" unicode="&#x131;" horiz-adv-x="471" 
d="M322 1040v-1040h-174v1040h174z" />
    <glyph glyph-name="OE" unicode="&#x152;" horiz-adv-x="2032" 
d="M1980 164l0.00195312 -163.999h-925v135c-51.333 -50.667 -108.333 -90 -171 -118s-130.667 -42 -204 -42c-93.333 0 -177.833 19.333 -253.5 58s-140.167 92.667 -193.5 162c-48.667 65.333 -86.334 142 -113.001 230s-40 185.333 -40 292
c0 116.667 15.667 222.5 47 317.5s75.666 174.167 132.999 237.5c53.333 59.333 115.333 105.166 186 137.499s148.667 48.5 234 48.5c73.333 0 141.833 -13.667 205.5 -41s120.167 -67 169.5 -119v136h907v-164h-719v-457h508v-162h-508v-487h737zM680.002 133.001
c120.667 0 215.332 50.167 283.999 150.5s103 244.833 103 433.5c0 183.333 -33.667 326 -101 428s-162.666 153 -285.999 153s-219.333 -51.5 -288 -154.5s-103 -245.167 -103 -426.5c0 -189.333 35 -334 105 -434s165.333 -150 286 -150z" />
    <glyph glyph-name="oe" unicode="&#x153;" horiz-adv-x="1780" 
d="M1587 301l129.001 -70.001c-38.667 -68 -96 -126.833 -172 -176.5s-168 -74.5 -276 -74.5c-80.667 0 -152.5 16.5 -215.5 49.5s-115.5 78.5 -157.5 136.5c-40 -57.333 -90.333 -102.666 -151 -135.999s-129.667 -50 -207 -50c-138.667 0 -250.834 49.667 -336.501 149
s-128.5 230.333 -128.5 393c0 155.333 41.833 283.666 125.5 384.999s196.834 152 339.501 152c81.333 0 152.666 -17 213.999 -51s112 -82 152 -144c40.667 57.333 91.667 104.166 153 140.499s131.333 54.5 210 54.5c82.667 0 155 -16.167 217 -48.5
s112.333 -81.166 151 -146.499c26.667 -44.667 46.667 -96.5 60 -155.5s20 -123.167 20 -192.5v-18h-741c0 -118.667 29 -211.167 87 -277.5s132.667 -99.5 224 -99.5c72.667 0 134.5 17.333 185.5 52s90.167 77.334 117.5 128.001zM537.001 120.999
c92.667 0 162.833 34.833 210.5 104.5s71.5 168.5 71.5 296.5c0 126.667 -24 224.667 -72 294s-118 104 -210 104c-95.333 0 -166 -36 -212 -108s-69 -168.667 -69 -290c0 -124.667 23.167 -222.667 69.5 -294s116.833 -107 211.5 -107zM979 620.999h559.001
c-0.666992 89.333 -23 161.833 -67 217.5s-108.333 83.5 -193 83.5c-91.333 0 -163.333 -28.833 -216 -86.5s-80.334 -129.167 -83.001 -214.5z" />
    <glyph glyph-name="Ydieresis" unicode="&#x178;" horiz-adv-x="1171" 
d="M995 1434h187l-498 -865v-569h-195v565l-499 869h217l395 -703zM870 1761v-192h-172v192h172zM506 1761v-192h-172v192h172z" />
    <glyph glyph-name="florin" unicode="&#x192;" horiz-adv-x="842" 
d="M670 1401c31.333 0 61.998 -1.00293 91.998 -3.00293s57.333 -5 82 -9l-25 -136c-10.667 0.666992 -27.834 2.33398 -51.501 5.00098s-44.5 4 -62.5 4c-40 0 -74.667 -10.167 -104 -30.5s-48 -54.166 -56 -101.499l-33 -198h201l-25 -131h-199l-121 -679l-14 -75
c-14 -78.667 -47.5 -142.167 -100.5 -190.5s-119.833 -72.833 -200.5 -73.5c-31.333 0 -62 1 -92 3s-57.333 5 -82 9l25 135c10.667 -0.666992 27.834 -2.16699 51.501 -4.5s44.5 -3.5 62.5 -3.5c40 0 74.667 10.167 104 30.5s48 53.833 56 100.5l13 73l118 675h-157l24 133
h158l35 203c12.667 78 45.834 141.333 99.501 190s120.834 73.334 201.501 74.001z" />
    <glyph glyph-name="circumflex" unicode="&#x2c6;" horiz-adv-x="942" 
d="M567 1434l195 -295h-113l-176 182l-180 -182h-113l195 295h192z" />
    <glyph glyph-name="caron" unicode="&#x2c7;" horiz-adv-x="942" 
d="M649 1434h113l-195 -295h-192l-195 295h113l180 -183z" />
    <glyph glyph-name="uni02C9" unicode="&#x2c9;" horiz-adv-x="942" 
d="M774 1370v-119h-606v119h606z" />
    <glyph glyph-name="breve" unicode="&#x2d8;" horiz-adv-x="942" 
d="M641 1434h109c-13.333 -95.333 -42 -168.666 -86 -219.999s-108.333 -77 -193 -77c-86.667 0 -151.667 26.667 -195 80s-71 125.666 -83 216.999h108c8 -34 21.333 -70.833 40 -110.5s62 -59.5 130 -59.5c66 0 108 18.333 126 55s32.667 75 44 115z" />
    <glyph glyph-name="dotaccent" unicode="&#x2d9;" horiz-adv-x="942" 
d="M559 1399v-201h-178v201h178z" />
    <glyph glyph-name="ring" unicode="&#x2da;" horiz-adv-x="942" 
d="M473 1552c65.333 0 117.832 -20 157.499 -60s59.5 -91 59.5 -153s-21.167 -111.833 -63.5 -149.5s-94.166 -56.5 -155.499 -56.5c-62 0 -114 18.833 -156 56.5s-63 87.5 -63 149.5c0 56 19.333 105.5 58 148.5s93 64.5 163 64.5zM470.999 1210c36 0 62.5 12.667 79.5 38
s25.5 57 25.5 95c0 40.667 -8 72.834 -24 96.501s-43 35.5 -81 35.5c-38.667 0 -65.667 -12.333 -81 -37s-23 -56.334 -23 -95.001c0 -37.333 8.16699 -68.833 24.5 -94.5s42.833 -38.5 79.5 -38.5z" />
    <glyph glyph-name="tilde" unicode="&#x2dc;" horiz-adv-x="942" 
d="M666 1411l101.999 0.000976562c-8 -72 -28.333 -126.5 -61 -163.5s-73 -55.5 -121 -55.5c-23.333 0 -44.5 3 -63.5 9s-36.833 14.667 -53.5 26l-64.5 40.5c-20.333 12.333 -38.5 18.5 -54.5 18.5c-21.333 0 -38.666 -6.33301 -51.999 -19s-21.333 -38.334 -24 -77.001
h-100c6 73.333 25 128.5 57 165.5s73 55.5 123 55.5c28 0 53 -5 75 -15s43.667 -22.667 65 -38c14 -11.333 29.833 -21 47.5 -29s33.167 -12 46.5 -12c25.333 0 43.833 7 55.5 21s19.167 38.333 22.5 73z" />
    <glyph glyph-name="pi" unicode="&#x3c0;" horiz-adv-x="1247" 
d="M1184 137v-131.003c-30.667 -8 -56.667 -14 -78 -18s-45.333 -6 -72 -6c-63.333 0 -120.5 17.333 -171.5 52s-76.5 107.334 -76.5 218.001c0 132.667 0.166992 251.834 0.5 357.501s0.833008 200.167 1.5 283.5h-382l4 -893h-177v893h-178v147h1121v-147h-215v-637
c0 -61.333 16.167 -98.166 48.5 -110.499s61.833 -18.5 88.5 -18.5c10 0 24.167 1.16699 42.5 3.5s32.833 4.5 43.5 6.5z" />
    <glyph glyph-name="endash" unicode="&#x2013;" 
d="M1008 625v-150h-848v150h848z" />
    <glyph glyph-name="emdash" unicode="&#x2014;" horiz-adv-x="2200" 
d="M2040 625v-150h-1880v150h1880z" />
    <glyph glyph-name="uni2015" unicode="&#x2015;" horiz-adv-x="2085" 
d="M1874 131v-131h-1808v131h1808z" />
    <glyph glyph-name="quoteleft" unicode="&#x2018;" horiz-adv-x="481" 
d="M281 1434h98l-121 -263h96v-229h-225v199z" />
    <glyph glyph-name="quoteright" unicode="&#x2019;" horiz-adv-x="481" 
d="M354 1434v-201l-153 -291h-97l119 262h-94v230h225z" />
    <glyph glyph-name="quotesinglbase" unicode="&#x201a;" horiz-adv-x="481" 
d="M354 236v-201l-153 -291h-97l119 262h-94v230h225z" />
    <glyph glyph-name="quotedblleft" unicode="&#x201c;" horiz-adv-x="829" 
d="M281 1434h98l-121 -263h96v-229h-225v199zM627 1434h98l-121 -263h96v-229h-225v199z" />
    <glyph glyph-name="quotedblright" unicode="&#x201d;" horiz-adv-x="829" 
d="M354 1434v-201l-153 -291h-97l119 262h-94v230h225zM700 1434v-201l-153 -291h-96l118 262h-94v230h225z" />
    <glyph glyph-name="quotedblbase" unicode="&#x201e;" horiz-adv-x="829" 
d="M354 236v-201l-153 -291h-97l119 262h-94v230h225zM700 236v-201l-153 -291h-96l118 262h-94v230h225z" />
    <glyph glyph-name="dagger" unicode="&#x2020;" horiz-adv-x="1096" 
d="M893 1128v-176l-311 56l55 -275l-68 -739h-47l-61 739l67 275l-313 -56v176l313 -67l-67 373h176l-55 -373z" />
    <glyph glyph-name="daggerdbl" unicode="&#x2021;" horiz-adv-x="1096" 
d="M893 475v-176l-311 68l55 -373h-176l67 373l-313 -68v176l313 -55l-67 295l67 293l-313 -56v176l313 -67l-67 373h176l-55 -373l311 67v-176l-311 56l55 -293l-55 -295z" />
    <glyph glyph-name="bullet" unicode="&#x2022;" horiz-adv-x="866" 
d="M434 1114c108 0 200.833 -39.167 278.5 -117.5s116.5 -171.5 116.5 -279.5s-38.833 -201.333 -116.5 -280s-170.5 -118 -278.5 -118c-108.667 0 -202 39.333 -280 118s-117 172 -117 280s39 201.167 117 279.5s171.333 117.5 280 117.5z" />
    <glyph glyph-name="ellipsis" unicode="&#x2026;" horiz-adv-x="1751" 
d="M408 240v-240h-230v240h230zM992 240v-240h-230v240h230zM1576 240v-240h-230v240h230z" />
    <glyph glyph-name="perthousand" unicode="&#x2030;" horiz-adv-x="2511" 
d="M475 1401c88.667 0 165.167 -32 229.5 -96s96.5 -141.333 96.5 -232c0 -88.667 -32.167 -165 -96.5 -229s-140.833 -96 -229.5 -96s-165 32 -229 96s-96 140.333 -96 229c0 90.667 32 168 96 232s140.333 96 229 96zM475 881c52 0 95.333 18.333 130 55s52 83 52 139
c0 57.333 -17.333 103.833 -52 139.5s-78 53.5 -130 53.5s-95.333 -17.833 -130 -53.5s-52 -82.167 -52 -139.5c0 -56 17.333 -102.333 52 -139s78 -55 130 -55zM1282 631c88.667 0 165.167 -32 229.5 -96s96.5 -141.333 96.5 -232c0 -88.667 -32.167 -165.167 -96.5 -229.5
s-140.833 -96.5 -229.5 -96.5s-165.167 32.167 -229.5 96.5s-96.5 140.833 -96.5 229.5c0 90.667 32.167 168 96.5 232s140.833 96 229.5 96zM1282 111c52 0 95.333 18.333 130 55s52 83 52 139c0 57.333 -17.333 103.833 -52 139.5s-78 53.5 -130 53.5
s-95.333 -17.833 -130 -53.5s-52 -82.167 -52 -139.5c0 -56 17.333 -102.333 52 -139s78 -55 130 -55zM2042 631c88.667 0 165 -32 229 -96s96 -141.333 96 -232c0 -88.667 -32 -165.167 -96 -229.5s-140.333 -96.5 -229 -96.5s-165.167 32.167 -229.5 96.5
s-96.5 140.833 -96.5 229.5c0 90.667 32.167 168 96.5 232s140.833 96 229.5 96zM2042 111c52 0 95.333 18.333 130 55s52 83 52 139c0 57.333 -17.333 103.833 -52 139.5s-78 53.5 -130 53.5s-95.333 -17.833 -130 -53.5s-52 -82.167 -52 -139.5
c0 -56 17.333 -102.333 52 -139s78 -55 130 -55zM1305 1376h139l-995 -1376h-138z" />
    <glyph glyph-name="guilsinglleft" unicode="&#x2039;" horiz-adv-x="664" 
d="M279 549l274 -301l-115 -78l-317 340v80l317 340l115 -78z" />
    <glyph glyph-name="guilsinglright" unicode="&#x203a;" horiz-adv-x="664" 
d="M543 590v-80l-316 -340l-114 78l272 301l-272 303l114 78z" />
    <glyph glyph-name="fraction" unicode="&#x2044;" horiz-adv-x="365" 
d="M668 1458h145l-1075 -1485h-146z" />
    <glyph glyph-name="Euro" unicode="&#x20ac;" 
d="M997 276l119.001 -109.996c-58 -57.333 -119.5 -103.166 -184.5 -137.499s-150.833 -51.5 -257.5 -51.5c-93.333 0 -184.333 38.667 -273 116s-147.334 202 -176.001 374h-153v106h141c-0.666992 16.667 -1.5 33.667 -2.5 51s-1.5 34.666 -1.5 51.999s0.5 34.5 1.5 51.5
s1.83301 33.833 2.5 50.5h-141v107h151c28.667 181.333 89.667 312.666 183 393.999s193 122 299 122c110.667 0 195 -18 253 -54s110 -75.333 156 -118l-131 -111c-34 34.667 -72.167 65.5 -114.5 92.5s-97.833 40.5 -166.5 40.5c-75.333 0 -139.5 -30.833 -192.5 -92.5
s-89.167 -152.834 -108.5 -273.501h406v-107h-418c-0.666992 -16.667 -1.5 -33.834 -2.5 -51.501s-1.5 -35.834 -1.5 -54.501c0 -17.333 0.5 -34.333 1.5 -51s1.83301 -32.667 2.5 -48h350v-106h-336c20.667 -116.667 59.667 -202.5 117 -257.5s126.333 -82.5 207 -82.5
c61.333 0 114.833 17 160.5 51s82.167 66.667 109.5 98z" />
    <glyph glyph-name="trademark" unicode="&#x2122;" horiz-adv-x="985" 
d="M877 1434l14 -433h-76l-14 312l-113 -312h-45l-111 312l-16 -312h-74l23 433h113l90 -275l92 275h117zM395 1434v-72h-116v-361h-82v363h-115v70h313z" />
    <glyph glyph-name="onethird" unicode="&#x2153;" horiz-adv-x="2011" 
d="M1696 428c48 -15.333 87.998 -40.0039 119.998 -74.0039s48 -75.667 48 -125c0 -74 -32.333 -135.167 -97 -183.5s-147.667 -72.5 -249 -72.5c-66.667 0 -128.5 11.833 -185.5 35.5s-109.833 60.5 -158.5 110.5l100 88c30.667 -36 68.334 -64.5 113.001 -85.5
s88.334 -31.5 131.001 -31.5c52.667 0 98.167 11.833 136.5 35.5s57.5 58.834 57.5 105.501c0 40 -16.333 71.167 -49 93.5s-79 33.5 -139 33.5h-129v121h123c46.667 0 86.667 10.833 120 32.5s50 51.834 50 90.501c0 34.667 -14 63.834 -42 87.501s-67.333 35.5 -118 35.5
c-40.667 0 -79.334 -10.833 -116.001 -32.5s-67.667 -48.5 -93 -80.5l-102 84c48 51.333 98.5 88.5 151.5 111.5s108.167 34.5 165.5 34.5c90.667 0 163.834 -22.167 219.501 -66.5s83.5 -100.166 83.5 -167.499c0 -38.667 -13 -73.5 -39 -104.5s-60 -56.167 -102 -75.5z
M722.998 726.996v-114.998h-500v115h183v563l-183 -71v102c60 29.333 104.833 52.666 134.5 69.999s63.5 39.666 101.5 66.999h94v-731h170zM1469 1458h145l-1075 -1485h-146z" />
    <glyph glyph-name="twothirds" unicode="&#x2154;" horiz-adv-x="2011" 
d="M1722 428c48 -15.333 87.999 -40.0039 119.999 -74.0039s48 -75.667 48 -125c0 -74 -32.167 -135.167 -96.5 -183.5s-147.5 -72.5 -249.5 -72.5c-66 0 -127.667 11.833 -185 35.5s-110.333 60.5 -159 110.5l100 88c30.667 -36 68.334 -64.5 113.001 -85.5
s88.334 -31.5 131.001 -31.5c53.333 0 99.166 11.833 137.499 35.5s57.5 58.834 57.5 105.501c0 40 -16.5 71.167 -49.5 93.5s-79.5 33.5 -139.5 33.5h-129v121h123c46.667 0 86.667 10.833 120 32.5s50 51.834 50 90.501c0 34.667 -13.833 63.834 -41.5 87.501
s-67.167 35.5 -118.5 35.5c-40 0 -78.333 -10.833 -115 -32.5s-67.667 -48.5 -93 -80.5l-103 84c48 51.333 98.667 88.5 152 111.5s108.666 34.5 165.999 34.5c90.667 0 163.834 -22.167 219.501 -66.5s83.5 -100.166 83.5 -167.499c0 -38.667 -13.167 -73.5 -39.5 -104.5
s-60.5 -56.167 -102.5 -75.5zM814.999 736.996l-0.000976562 -123h-639v97l174 121c52 36.667 97.667 72 137 106c54 46.667 95.167 91.5 123.5 134.5s42.5 84.833 42.5 125.5c0 44 -13.5 78.5 -40.5 103.5s-66.5 37.5 -118.5 37.5s-95.667 -14.333 -131 -43
s-69 -62 -101 -100l-92 98c48 49.333 98.833 89 152.5 119s113.5 45 179.5 45c89.333 0 162.5 -23.5 219.5 -70.5s85.5 -110.833 85.5 -191.5c0 -55.333 -16.667 -107.333 -50 -156s-79.666 -98.334 -138.999 -149.001c-28.667 -23.333 -61 -48.166 -97 -74.499l-113 -79.5
h407zM1495 1458h145l-1077 -1485h-143z" />
    <glyph glyph-name="oneeighth" unicode="&#x215b;" horiz-adv-x="2011" 
d="M1696 434c56 -23.333 99.6689 -53.1699 131.002 -89.5029s47 -78.833 47 -127.5c0 -68 -30.833 -125.667 -92.5 -173s-146.834 -71 -255.501 -71c-110.667 0 -195.667 22.333 -255 67s-89 101.667 -89 171c0 42.667 15.5 82.834 46.5 120.501s74.167 67.834 129.5 90.501
c-42.667 20.667 -77.334 47.667 -104.001 81s-40 70.333 -40 111c0 65.333 27.833 120.333 83.5 165s133.167 67 232.5 67c100 0 176.833 -21.333 230.5 -64s80.5 -95.667 80.5 -159c0 -40 -13.5 -76.167 -40.5 -108.5s-61.833 -59.166 -104.5 -80.499zM723.002 726.996
v-114.998h-500v115h183v563l-183 -71v102c60 29.333 104.833 52.666 134.5 69.999s63.5 39.666 101.5 66.999h94v-731h170zM1530 87.998c61.333 0 109.333 11.666 144 34.999s52 53.333 52 90c0 36 -19.333 67.5 -58 94.5s-104.667 50.167 -198 69.5
c-54 -17.333 -91.667 -40.166 -113 -68.499s-32 -59.5 -32 -93.5c0 -40 18.333 -71.167 55 -93.5s86.667 -33.5 150 -33.5zM1583 468.997c46.667 20.667 77.833 44.5 93.5 71.5s23.5 54.5 23.5 82.5c0 31.333 -15 57.5 -45 78.5s-72.333 31.5 -127 31.5
c-52 0 -92.667 -10.333 -122 -31s-44 -46.334 -44 -77.001c0 -36 17 -66.667 51 -92s90.667 -46.666 170 -63.999zM1469 1458h145l-1075 -1485h-146z" />
    <glyph glyph-name="threeeighths" unicode="&#x215c;" horiz-adv-x="2011" 
d="M659 1044c48 -14.667 88.0029 -39.1699 120.003 -73.5029s48 -75.833 48 -124.5c0 -74.667 -32.167 -136 -96.5 -184s-147.5 -72 -249.5 -72c-66 0 -127.5 11.667 -184.5 35s-110.167 60 -159.5 110l101 88c30.667 -35.333 68.167 -63.5 112.5 -84.5
s87.833 -31.5 130.5 -31.5c53.333 0 99.166 11.833 137.499 35.5s57.5 58.834 57.5 105.501c0 40 -16.5 71.167 -49.5 93.5s-79.5 33.5 -139.5 33.5h-129v121h123c46.667 0 86.667 10.833 120 32.5s50 51.834 50 90.501c0 34 -13.833 62.833 -41.5 86.5
s-66.834 35.5 -117.501 35.5c-40.667 0 -79.334 -10.833 -116.001 -32.5s-67.667 -48.167 -93 -79.5l-103 84c48 50.667 98.667 87.5 152 110.5s108.666 34.5 165.999 34.5c90.667 0 163.834 -22 219.501 -66s83.5 -99.667 83.5 -167c0 -38.667 -13.167 -73.667 -39.5 -105
s-60.5 -56.666 -102.5 -75.999zM1720 433.997c56 -23.333 99.668 -53.1699 131.001 -89.5029s47 -78.833 47 -127.5c0 -68 -30.833 -125.667 -92.5 -173s-146.834 -71 -255.501 -71c-110.667 0 -195.667 22.333 -255 67s-89 101.667 -89 171
c0 42.667 15.667 82.834 47 120.501s74.333 67.834 129 90.501c-42.667 20.667 -77.167 47.667 -103.5 81s-39.5 70.333 -39.5 111c0 65.333 27.833 120.333 83.5 165s132.834 67 231.501 67c99.333 0 176.166 -21.333 230.499 -64s81.5 -95.667 81.5 -159
c0 -40 -13.667 -76.167 -41 -108.5s-62.333 -59.166 -105 -80.499zM1554 87.9932c61.333 0 109.167 11.666 143.5 34.999s51.5 53.333 51.5 90c0 36 -19.167 67.5 -57.5 94.5s-103.833 50.167 -196.5 69.5c-54 -17.333 -91.667 -40.166 -113 -68.499s-32 -59.5 -32 -93.5
c0 -40 18 -71.167 54 -93.5s86 -33.5 150 -33.5zM1608 468.992c46.667 20.667 77.668 44.5 93.001 71.5s23 54.5 23 82.5c0 31.333 -14.833 57.5 -44.5 78.5s-72.167 31.5 -127.5 31.5c-52.667 0 -93.834 -10.333 -123.501 -31s-44.5 -46.334 -44.5 -77.001
c0 -36 17.167 -66.667 51.5 -92s91.833 -46.666 172.5 -63.999zM1493.01 1457.99h145l-1075 -1485h-145z" />
    <glyph glyph-name="fiveeighths" unicode="&#x215d;" horiz-adv-x="2011" 
d="M541 1174c84.667 0 156.666 -26 215.999 -78s89 -119.667 89 -203c0 -84.667 -32.833 -156.334 -98.5 -215.001s-146.167 -88 -241.5 -88c-65.333 0 -126.5 11.667 -183.5 35s-109.833 60 -158.5 110l100 88c30.667 -35.333 68.167 -63.5 112.5 -84.5
s86.833 -31.5 127.5 -31.5c56.667 0 102.834 17.167 138.501 51.5s53.5 76.5 53.5 126.5c0 54.667 -17.167 96.667 -51.5 126s-76.5 44 -126.5 44c-36.667 0 -72.667 -7.16699 -108 -21.5s-66.333 -37.166 -93 -68.499l-98 61l43 418h547l-16 -123h-414l-27 -199
c30 15.333 60 27.833 90 37.5s63 14.5 99 14.5zM1720 434c56 -23.333 99.668 -53.1699 131.001 -89.5029s47 -78.833 47 -127.5c0 -68 -30.833 -125.667 -92.5 -173s-146.834 -71 -255.501 -71c-110.667 0 -195.667 22.333 -255 67s-89 101.667 -89 171
c0 42.667 15.667 82.834 47 120.501s74.333 67.834 129 90.501c-42.667 20.667 -77.167 47.667 -103.5 81s-39.5 70.333 -39.5 111c0 65.333 27.833 120.333 83.5 165s132.834 67 231.501 67c99.333 0 176.166 -21.333 230.499 -64s81.5 -95.667 81.5 -159
c0 -40 -13.667 -76.167 -41 -108.5s-62.333 -59.166 -105 -80.499zM1554 87.9961c61.333 0 109.167 11.666 143.5 34.999s51.5 53.333 51.5 90c0 36 -19.167 67.5 -57.5 94.5s-103.833 50.167 -196.5 69.5c-54 -17.333 -91.667 -40.166 -113 -68.499s-32 -59.5 -32 -93.5
c0 -40 18 -71.167 54 -93.5s86 -33.5 150 -33.5zM1608 468.995c46.667 20.667 77.668 44.5 93.001 71.5s23 54.5 23 82.5c0 31.333 -14.833 57.5 -44.5 78.5s-72.167 31.5 -127.5 31.5c-52.667 0 -93.834 -10.333 -123.501 -31s-44.5 -46.334 -44.5 -77.001
c0 -36 17.167 -66.667 51.5 -92s91.833 -46.666 172.5 -63.999zM1493 1458h145l-1075 -1485h-145z" />
    <glyph glyph-name="seveneighths" unicode="&#x215e;" horiz-adv-x="2011" 
d="M1696 434c56 -23.333 99.6689 -53.1699 131.002 -89.5029s47 -78.833 47 -127.5c0 -68 -30.833 -125.667 -92.5 -173s-146.834 -71 -255.501 -71c-110.667 0 -195.667 22.333 -255 67s-89 101.667 -89 171c0 42.667 15.5 82.834 46.5 120.501s74.167 67.834 129.5 90.501
c-42.667 20.667 -77.334 47.667 -104.001 81s-40 70.333 -40 111c0 65.333 27.833 120.333 83.5 165s133.167 67 232.5 67c100 0 176.833 -21.333 230.5 -64s80.5 -95.667 80.5 -159c0 -40 -13.5 -76.167 -40.5 -108.5s-61.833 -59.166 -104.5 -80.499zM1530 87.9961
c61.333 0 109.333 11.666 144 34.999s52 53.333 52 90c0 36 -19.333 67.5 -58 94.5s-104.667 50.167 -198 69.5c-54 -17.333 -91.667 -40.166 -113 -68.499s-32 -59.5 -32 -93.5c0 -40 18.333 -71.167 55 -93.5s86.667 -33.5 150 -33.5zM1583 468.995
c46.667 20.667 77.833 44.5 93.5 71.5s23.5 54.5 23.5 82.5c0 31.333 -15 57.5 -45 78.5s-72.333 31.5 -127 31.5c-52 0 -92.667 -10.333 -122 -31s-44 -46.334 -44 -77.001c0 -36 17 -66.667 51 -92s90.667 -46.666 170 -63.999zM877.001 1444l0.000976562 -88.001
c-84.667 -120.667 -156.834 -236.167 -216.501 -346.5s-98.834 -245.5 -117.501 -405.5h-164c24.667 148 71.834 283.833 141.501 407.5s135.167 226.834 196.5 309.501h-484l15 123h629zM1424 1457.99h145l-1075 -1485h-146z" />
    <glyph glyph-name="partialdiff" unicode="&#x2202;" horiz-adv-x="0" 
 />
    <glyph glyph-name="Delta" unicode="&#x2206;" horiz-adv-x="0" 
 />
    <glyph glyph-name="product" unicode="&#x220f;" horiz-adv-x="0" 
 />
    <glyph glyph-name="minus" unicode="&#x2212;" 
d="M1057 625v-148h-944v148h944z" />
    <glyph glyph-name="uni2215" unicode="&#x2215;" horiz-adv-x="1087" 
d="M836 1434h141l-827 -1751h-142z" />
    <glyph glyph-name="uni2219" unicode="&#x2219;" horiz-adv-x="625" 
d="M311 694c40 0 73.667 -13.667 101 -41s41 -60 41 -98c0 -38.667 -13.667 -71.834 -41 -99.501s-61 -41.5 -101 -41.5c-38.667 0 -71.167 13.833 -97.5 41.5s-39.5 60.834 -39.5 99.501c0 38 13.167 70.667 39.5 98s58.833 41 97.5 41z" />
    <glyph glyph-name="radical" unicode="&#x221a;" horiz-adv-x="1556" 
d="M1296 1497h140l-521 -1554h-104l-397 848l-217 -101l-50 94l381 183l344 -750z" />
    <glyph glyph-name="infinity" unicode="&#x221e;" horiz-adv-x="1661" 
d="M1190 977c102.667 0 184.336 -38.5 245.003 -115.5s91 -175.833 91 -296.5c0 -144 -35 -251.667 -105 -323s-156 -107 -258 -107c-72 0 -138.333 22.667 -199 68s-108.334 107.333 -143.001 186c-42.667 -85.333 -92.834 -149 -150.501 -191s-124.167 -63 -199.5 -63
c-102.667 0 -184.334 38.5 -245.001 115.5s-91 175.167 -91 294.5c0 142 35.167 249.5 105.5 322.5s156.833 109.5 259.5 109.5c71.333 0 137.166 -23 197.499 -69s107.833 -107.667 142.5 -185c42.667 83.333 92.834 146.5 150.501 189.5s124.167 64.5 199.5 64.5z
M698.002 455l43.0029 79.001c13.333 25.333 26.333 54.333 39 87c-32.667 65.333 -72.834 114.333 -120.501 147s-96.834 49 -147.501 49c-73.333 0 -130.5 -23.5 -171.5 -70.5s-61.5 -114.167 -61.5 -201.5c0 -72.667 16.333 -132.834 49 -180.501s81 -71.5 145 -71.5
c58 0 102.667 14 134 42s61.666 68 90.999 120zM1151 293.001c72 0 128.5 23.498 169.5 70.498s61.5 114.167 61.5 201.5c0 72.667 -16.333 132.834 -49 180.501s-81 71.5 -145 71.5c-58 0 -102.667 -13.667 -134 -41s-62.333 -67.666 -93 -120.999
c-16.667 -26.667 -31.5 -54 -44.5 -82s-24.833 -56 -35.5 -84c32.667 -64 73.167 -112.667 121.5 -146s97.833 -50 148.5 -50z" />
    <glyph glyph-name="integral" unicode="&#x222b;" horiz-adv-x="0" 
 />
    <glyph glyph-name="filledbox" unicode="&#x25a0;" horiz-adv-x="1096" 
d="M987 1153v-879h-878v879h878z" />
    <glyph glyph-name="triagup" unicode="&#x25b2;" horiz-adv-x="1200" 
d="M600 1286l559 -1130h-1118z" />
    <glyph glyph-name="uni25B6" unicode="&#x25b6;" horiz-adv-x="1239" 
d="M109 1276l1130 -559l-1130 -559v1118z" />
    <glyph glyph-name="triagdn" unicode="&#x25bc;" horiz-adv-x="1200" 
d="M41 1264h1118l-559 -1131z" />
    <glyph glyph-name="uni25C0" unicode="&#x25c0;" horiz-adv-x="1239" 
d="M1130 1276v-1118l-1130 559z" />
    <glyph glyph-name="lozenge" unicode="&#x25ca;" horiz-adv-x="993" 
d="M545 1386l360 -679l-360 -707h-111l-362 707l362 679h111zM489 100l304 607l-304 579l-307 -579z" />
    <glyph glyph-name="uni2B24" unicode="&#x2b24;" horiz-adv-x="1548" 
d="M1516 741c0 -68.667 -8.83301 -134.5 -26.5 -197.5s-42.5 -121.833 -74.5 -176.5c-32 -55.333 -70.5 -105.5 -115.5 -150.5s-94.833 -83.5 -149.5 -115.5c-55.333 -32 -114.666 -56.833 -177.999 -74.5s-129.333 -26.5 -198 -26.5s-134.667 8.83301 -198 26.5
s-122.333 42.5 -177 74.5c-55.333 32 -105.333 70.5 -150 115.5s-83 95.167 -115 150.5c-32 54.667 -56.833 113.5 -74.5 176.5s-26.5 128.833 -26.5 197.5s8.83301 134.667 26.5 198s42.5 122.333 74.5 177s70.333 104.5 115 149.5s94.667 83.5 150 115.5
c54.667 32 113.667 56.667 177 74s129.333 26 198 26s134.667 -8.66699 198 -26s122.666 -42 177.999 -74c54.667 -32 104.5 -70.5 149.5 -115.5s83.5 -94.833 115.5 -149.5s56.833 -113.667 74.5 -177s26.5 -129.333 26.5 -198z" />
    <glyph glyph-name="grave.uc" 
d="M535 1810l182 -280h-135l-266 270v10h219z" />
    <glyph glyph-name="acute.uc" 
d="M854 1810v-10l-268 -270h-133l180 280h221z" />
    <glyph glyph-name="circumflex.uc" 
d="M678 1810l195 -290h-113l-176 178l-180 -178h-113l195 290h192z" />
    <glyph glyph-name="dieresis.uc" 
d="M853 1761v-192h-172v192h172zM489 1761v-192h-172v192h172z" />
    <glyph glyph-name="Q.alt" horiz-adv-x="1360" 
d="M1298 -92v-181.997h-28c-125.333 0 -222.333 22.667 -291 68s-126 110.666 -172 195.999c-19.333 -4.66699 -39.666 -8.33398 -60.999 -11.001s-43.333 -4 -66 -4c-93.333 0 -177.833 19.333 -253.5 58s-140.167 92.667 -193.5 162
c-48.667 65.333 -86.334 142 -113.001 230s-40 185.333 -40 292c0 116.667 15.667 222.5 47 317.5s75.666 174.167 132.999 237.5c53.333 59.333 115.333 105.166 186 137.499s148.667 48.5 234 48.5c84.667 0 162.5 -15.833 233.5 -47.5s132.5 -77.167 184.5 -136.5
c58 -64 102.833 -143.667 134.5 -239s47.5 -201.333 47.5 -318c0 -160 -29.167 -296.667 -87.5 -410s-137.166 -198 -236.499 -254c28.667 -44 67.5 -79.167 116.5 -105.5s106.5 -39.5 172.5 -39.5h53zM680 133.003c121.333 0 216.5 50.167 285.5 150.5
s103.5 244.833 103.5 433.5c0 183.333 -34 326 -102 428s-163.667 153 -287 153s-219.333 -51.5 -288 -154.5s-103 -245.167 -103 -426.5c0 -189.333 35 -334 105 -434s165.333 -150 286 -150z" />
    </font>
</defs>
</svg>
