<?xml version="1.0" encoding="UTF-8" standalone="no"?>
<svg
   xmlns:dc="http://purl.org/dc/elements/1.1/"
   xmlns:cc="http://creativecommons.org/ns#"
   xmlns:rdf="http://www.w3.org/1999/02/22-rdf-syntax-ns#"
   xmlns:svg="http://www.w3.org/2000/svg"
   xmlns="http://www.w3.org/2000/svg"
   id="svg912"
   version="1.1"
   viewBox="0 0 189.97255 94.316597"
   height="94.316597mm"
   width="189.97255mm">
  <defs
     id="defs906" />
  <metadata
     id="metadata909">
    <rdf:RDF>
      <cc:Work
         rdf:about="">
        <dc:format>image/svg+xml</dc:format>
        <dc:type
           rdf:resource="http://purl.org/dc/dcmitype/StillImage" />
        <dc:title></dc:title>
      </cc:Work>
    </rdf:RDF>
  </metadata>
  <g
     transform="translate(-8.5792069,-1.8893184)"
     id="layer1">
    <path
       style="stroke-width:0.26458332"
       d="m 88.720673,33.803897 c -0.529167,-3.96875 -3.704167,-4.89479 -3.704167,-4.89479 l -4.365626,-0.26458 c 0,0 14.816668,-22.3572969 -0.79375,-26.4583379 -21.351874,-5.609167 -90.513958,70.0087479 -66.145833,79.6395879 14.419792,5.68854 32.464376,-41.46021 35.983334,-52.25521 0.132292,-0.39688 0.820209,-3.36021 -0.449791,-3.28084 -0.767292,0.0529 -2.196042,3.67771 -2.196042,3.67771 0,0 -21.246043,51.64667 -31.485418,47.49271 -14.2875003,-5.79437 40.005001,-78.6870829 64.426042,-73.4747919 12.567709,2.69875 -2.460625,26.2731219 -2.460625,26.2731219 0,0 -8.942917,3.20146 -26.246666,26.93459 -13.890625,19.05 -17.965209,35.66583 -13.440833,38.49687 11.456458,7.170213 41.089791,-62.75916 41.089791,-62.75916 0,0 2.090208,-2.6723 5.635625,-2.11667 8.122709,1.27 -12.144375,43.60333 -16.589375,43.39167 -1.561042,-0.0794 0.820208,-3.88938 1.005416,-5.2123 0.3175,-2.01083 -0.291041,-2.01083 -0.529166,-1.71979 0,0 -5.979582,8.44021 -2.910417,9.26042 12.726459,3.43958 23.918335,-37.12104 23.177501,-42.73021 z m -48.5775,58.07604 c -9.419168,-7.06437 33.284582,-59.00208 35.348332,-57.28229 2.196042,1.82563 -30.162499,61.17167 -35.348332,57.28229 z"
       id="path870" />
    <g
       id="Layer_2"
       transform="matrix(0.26458333,0,0,0.26458333,-48.598074,-60.916937)">
      <path
         id="path873"
         d="m 690.3,334.3 c -2.3,-2.3 -10.9,-1.2 -13.5,0.7 -15.2,11 -31.2,72.8 -31.2,72.8 0,0 -32.4,50.8 -45.3,43.2 -4.2,-2.5 8.2,-19 8.2,-19 l -9,-1 c 0,0 -31.8,50.8 -47.3,44.7 -5.3,-2.1 -1.5,-21.3 -1.5,-21.3 l 17.8,-41.3 -7.5,-1.5 -3,4.2 c 0,0 1.8,-14 -10.7,-13.7 -34.4,0.9 -68.2,85.4 -53.8,94 17.7,10.5 48.5,-35 48.5,-35 0,0 -3.5,20.8 6.5,24 13.7,4.3 46.8,-33.5 46.8,-33.5 0,0 0,9 6.2,7.5 18.9,-4.6 36.8,-30.5 36.8,-30.5 l -36.3,116 c 0,0 -2.2,9.4 4,8 6.4,-1.5 45.5,-136.8 45.5,-136.8 0,0 58.7,-62.2 38.8,-81.5 z M 504,486 c -19,-4.7 37.5,-102.8 48.8,-72.8 1.2,3.3 -4.8,4.5 -2.3,7.7 0.8,1 5.3,0 5.3,0 0,0 -36.7,68.9 -51.8,65.1 z m 153.3,-87.7 c 0,0 12.3,-61.5 26,-55 13.7,6.5 -26,55 -26,55 z"
         class="st1" />
    </g>
    <g
       id="Layer_4"
       transform="matrix(0.26458333,0,0,0.26458333,-48.598074,-60.916937)">
      <path
         id="path876"
         d="m 792.8,380.3 -5,2.5 -49.3,28.2 c 26.1,-37.8 43.1,-57.7 41.8,-57.9 -5.5,-0.5 -22.5,22.1 -26.3,26.5 -9,10.8 -27.8,36 -27.6,36.1 0,0 -0.3,-1.8 -3.8,-0.5 -13.9,5.3 -36.9,33.6 -40.3,27.5 -2.2,-3.9 11.7,-29.7 2.9,-35.3 -12.3,-7.9 -55.2,51.2 -41.3,52 6.2,0.4 32.9,-54.6 38.8,-47 2.1,2.8 -20,34.3 -12.9,40.9 8.6,7.9 53.3,-35 53.3,-35 0,0 -2.3,3.9 -1.8,5.2 0.7,1.7 5.5,4.9 6.5,3.3 2.5,-3.7 4.9,-7.3 7.2,-10.7 z"
         class="st1" />
    </g>
    <g
       id="Layer_5"
       transform="matrix(0.26458333,0,0,0.26458333,-48.598074,-60.916937)">
      <path
         id="path879"
         d="m 927.8,348.5 c -13.6,8.4 -50.6,29.1 -61,28.2 -4.6,-0.4 -1.8,-14.5 -5.5,-16.7 -6.5,-3.8 -16.8,14.3 -23.7,13.8 -3.7,-0.3 -6.4,-11.2 -10.2,-11 -10.2,0.7 -47.1,37.3 -47.1,37.3 l 14.4,-39.8 c 0,0 20.2,-14.3 43.7,-28.7 9.6,-5.9 -40.8,19.3 -40.8,19.3 0,0 15.2,-65.4 30.5,-63 4.3,0.7 -10.8,11 -9.8,11.5 1.7,0.8 6.3,-0.5 7.3,1 1.9,2.9 -3.7,13.2 -3.7,13.2 0,0 25,-30.2 6.2,-31.3 -19.8,-1.2 -41.8,75.7 -41.8,75.7 0,0 -4.6,2.7 -10.5,9.2 -0.8,0.9 4.6,1.5 4.6,1.5 0,0 3.9,-3.9 2.9,-0.8 -4.5,15 -19,53.1 -19,53.1 0,0 -77.9,99.5 -40,107.7 20.8,4.5 50,-107 50,-107 0,0 41.7,-49.5 52.7,-51.8 3.2,-0.7 3.4,13.4 9.8,14 7,0.6 18.8,-22.6 23.2,-21 2.6,0.9 -2.5,14.2 1.5,20.3 7.2,10.9 96.8,-53.5 66.3,-34.7 z M 726.3,515 c -20,-8.3 37.3,-81 37.3,-81 0,0 -21.3,87.7 -37.3,81 z"
         class="st1" />
    </g>
  </g>
</svg>
